<?xml version="1.0" encoding="utf-8"?>
<!-- Generator: Adobe Illustrator 16.0.0, SVG Export Plug-In . SVG Version: 6.00 Build 0)  -->
<!DOCTYPE svg PUBLIC "-//W3C//DTD SVG 1.1//EN" "http://www.w3.org/Graphics/SVG/1.1/DTD/svg11.dtd">
<svg version="1.1" xmlns="http://www.w3.org/2000/svg" xmlns:xlink="http://www.w3.org/1999/xlink" x="0px" y="0px" width="362px"
	 height="220px" viewBox="0 0 362 220" enable-background="new 0 0 362 220" xml:space="preserve">
<g id="Layer_1" display="none">
	
		<image display="inline" overflow="visible" width="392" height="292" xlink:href="BEB6BB77.jpg"  transform="matrix(0.9999 0 0 0.9999 -34.8838 -26.1099)">
	</image>
</g>
<g id="Layer_2">
	<g>
		<path fill="#D1E4E5" d="M181.597,207.029c-34.638,0-67.336-6.548-92.071-18.438c-26.716-12.842-41.429-30.65-41.429-50.146
			S62.81,101.14,89.525,88.298c24.735-11.889,57.433-18.437,92.071-18.437c34.638,0,67.336,6.548,92.07,18.437
			c26.717,12.842,41.43,30.651,41.43,50.147s-14.713,37.305-41.43,50.146C248.933,200.481,216.234,207.029,181.597,207.029z
			 M181.597,86.861c-32.14,0-62.223,5.952-84.707,16.759c-20.206,9.712-31.794,22.405-31.794,34.825s11.588,25.112,31.794,34.825
			c22.484,10.807,52.566,16.759,84.707,16.759c32.14,0,62.222-5.952,84.706-16.759c20.205-9.713,31.794-22.405,31.794-34.825
			s-11.589-25.113-31.794-34.825C243.818,92.813,213.736,86.861,181.597,86.861z"/>
	</g>
</g>
<g id="Layer_3">
</g>
<g id="user">
	<g>
		<path fill="#D1E4E5" d="M217.101,85.084h-72.27c0-15.063,9.217-27.975,22.319-33.399c1.445,1.057,3.008,1.94,4.672,2.644
			c2.898,1.227,5.974,1.848,9.144,1.848c3.168,0,6.245-0.621,9.144-1.848c1.662-0.704,3.225-1.587,4.672-2.644
			C207.883,57.109,217.101,70.021,217.101,85.084z"/>
		<path fill="#D1E4E5" d="M200.84,32.688c0,7.567-4.229,14.145-10.45,17.502c-2.804,1.513-6.015,2.372-9.424,2.372
			s-6.62-0.858-9.424-2.372c-6.223-3.358-10.451-9.936-10.451-17.502c0-10.976,8.898-19.874,19.875-19.874
			S200.84,21.712,200.84,32.688z"/>
	</g>
	<g>
		<path fill="#D1E4E5" d="M299.454,107.599l-70.841-16.62c0-15.063,7.789-17.903,20.891-23.327c1.445,1.057,3.008,1.94,4.672,2.644
			c2.898,1.227,5.974,1.848,9.144,1.848c3.168,0,6.245-0.621,9.144-1.848c1.662-0.704,3.225-1.587,4.672-2.644
			C290.236,73.076,299.454,92.536,299.454,107.599z"/>
		<path fill="#D1E4E5" d="M283.193,48.655c0,7.567-4.229,14.145-10.45,17.502c-2.804,1.513-6.015,2.372-9.424,2.372
			s-6.62-0.858-9.424-2.372c-6.223-3.358-10.45-9.936-10.45-17.502c0-10.976,8.897-19.874,19.874-19.874
			S283.193,37.679,283.193,48.655z"/>
	</g>
	<g>
		<path fill="#D1E4E5" d="M127.805,92.349l-71.209,21.957c0-15.063,9.218-41.23,22.319-46.654c1.445,1.057,3.008,1.94,4.672,2.644
			c2.898,1.227,5.974,1.848,9.144,1.848c3.168,0,6.245-0.621,9.144-1.848c1.662-0.704,3.225-1.587,4.672-2.644
			C119.648,73.076,127.805,77.287,127.805,92.349z"/>
		<path fill="#D1E4E5" d="M112.605,48.655c0,7.567-4.229,14.145-10.45,17.502c-2.804,1.513-6.015,2.372-9.424,2.372
			s-6.62-0.858-9.424-2.372c-6.223-3.358-10.45-9.936-10.45-17.502c0-10.976,8.897-19.874,19.874-19.874
			S112.605,37.679,112.605,48.655z"/>
	</g>
</g>
<g id="user_copy">
	<g>
		<path fill="#D1E4E5" d="M217.731,201.503h-72.27c0-15.063,8.586-17.9,21.688-23.325c1.445,1.057,3.008,1.94,4.672,2.645
			c2.898,1.227,5.974,1.848,9.144,1.848c3.168,0,6.245-0.621,9.144-1.848c1.662-0.704,3.225-1.588,4.672-2.645
			C207.883,183.603,217.731,186.44,217.731,201.503z"/>
		<path fill="#D1E4E5" d="M200.84,159.182c0,7.566-4.229,14.145-10.45,17.502c-2.804,1.514-6.015,2.372-9.424,2.372
			s-6.62-0.858-9.424-2.372c-6.223-3.357-10.451-9.936-10.451-17.502c0-10.977,8.898-19.874,19.875-19.874
			S200.84,148.205,200.84,159.182z"/>
	</g>
	<g>
		<path fill="#D1E4E5" d="M288.967,178.178l-61.782,13.964c0-15.063,9.218-27.975,22.319-33.398
			c1.445,1.057,3.008,1.939,4.672,2.644c2.898,1.227,5.974,1.848,9.144,1.848c3.168,0,6.245-0.621,9.144-1.848
			c1.662-0.704,3.225-1.587,4.672-2.644C290.236,164.167,288.967,163.115,288.967,178.178z"/>
		<path fill="#D1E4E5" d="M283.193,139.747c0,7.566-4.229,14.145-10.45,17.502c-2.804,1.514-6.015,2.371-9.424,2.371
			s-6.62-0.857-9.424-2.371c-6.223-3.357-10.45-9.936-10.45-17.502c0-10.977,8.897-19.875,19.874-19.875
			S283.193,128.771,283.193,139.747z"/>
	</g>
	<g>
		<path fill="#D1E4E5" d="M128.866,192.142L67.89,173.868c0-15.063-2.076-9.701,11.026-15.125c1.445,1.057,3.008,1.939,4.672,2.644
			c2.898,1.227,5.974,1.848,9.144,1.848c3.168,0,6.245-0.621,9.144-1.848c1.662-0.704,3.225-1.587,4.672-2.644
			C119.648,164.167,128.866,177.079,128.866,192.142z"/>
		<path fill="#D1E4E5" d="M112.605,139.747c0,7.566-4.229,14.145-10.45,17.502c-2.804,1.514-6.015,2.371-9.424,2.371
			s-6.62-0.857-9.424-2.371c-6.223-3.357-10.45-9.936-10.45-17.502c0-10.977,8.897-19.875,19.874-19.875
			S112.605,128.771,112.605,139.747z"/>
	</g>
</g>
</svg>
