<?xml version="1.0" encoding="utf-8"?>
<!-- Generator: Adobe Illustrator 16.0.0, SVG Export Plug-In . SVG Version: 6.00 Build 0)  -->
<!DOCTYPE svg PUBLIC "-//W3C//DTD SVG 1.1//EN" "http://www.w3.org/Graphics/SVG/1.1/DTD/svg11.dtd">
<svg version="1.1" id="Layer_1" xmlns="http://www.w3.org/2000/svg" xmlns:xlink="http://www.w3.org/1999/xlink" x="0px" y="0px"
	 width="449.192px" height="362.45px" viewBox="0 0 449.192 362.45" enable-background="new 0 0 449.192 362.45"
	 xml:space="preserve">
<g id="XMLID_42_">
	<path id="XMLID_12_" fill="#0F7A94" d="M445.885,64.035l-53.381,53.38l-37.898,37.9l-203.83,203.82c-4.42,4.42-11.581,4.42-16,0
		l-52.71-52.721l-78.75-78.75c-4.42-4.41-4.42-11.58,0-16l44.68-44.681c4.42-4.42,11.59-4.42,16,0l70.75,70.75
		c4.42,4.41,11.59,4.41,16,0l234.42-234.42c4.42-4.42,11.58-4.42,16,0l44.719,44.72C450.295,52.445,450.295,59.615,445.885,64.035z"
		/>
</g>
</svg>
