<?xml version="1.0" encoding="utf-8"?>
<!-- Generator: Adobe Illustrator 16.0.0, SVG Export Plug-In . SVG Version: 6.00 Build 0)  -->
<!DOCTYPE svg PUBLIC "-//W3C//DTD SVG 1.1//EN" "http://www.w3.org/Graphics/SVG/1.1/DTD/svg11.dtd">
<svg version="1.1" id="Layer_1" xmlns="http://www.w3.org/2000/svg" xmlns:xlink="http://www.w3.org/1999/xlink" x="0px" y="0px"
	 width="603.286px" height="437.788px" viewBox="0 0 603.286 437.788" enable-background="new 0 0 603.286 437.788"
	 xml:space="preserve">
<polygon fill="#0F7A94" points="287.502,400.851 287.502,367.493 310.635,367.493 310.635,312.09 343.993,312.09 343.993,367.493 
	360.483,367.493 360.483,265.288 393.84,265.288 393.84,367.493 410.331,367.493 410.331,218.806 443.688,218.806 443.688,367.493 
	460.178,367.493 460.178,292.588 493.536,292.588 493.536,367.493 510.026,367.493 510.026,181.542 543.383,181.542 
	543.383,367.493 566.518,367.493 566.518,400.851 "/>
<polygon fill="#0F7A94" points="533.383,191.542 520.026,191.542 520.026,377.493 483.536,377.493 483.536,302.588 470.178,302.588 
	470.178,377.493 433.688,377.493 433.688,228.806 420.331,228.806 420.331,377.493 383.84,377.493 383.84,275.288 370.483,275.288 
	370.483,377.493 333.993,377.493 333.993,322.09 320.635,322.09 320.635,377.493 297.502,377.493 297.502,390.851 556.518,390.851 
	556.518,377.493 533.383,377.493 "/>
<path fill="#0F7A94" d="M34.489,437.786C15.472,437.786,0,422.313,0,403.296V34.489C0,15.472,15.472,0,34.489,0h534.306
	c19.018,0,34.49,15.472,34.49,34.489v368.807c0,19.018-15.473,34.49-34.49,34.49H34.489z M34.489,33.358
	c-0.613,0-1.132,0.518-1.132,1.131v368.807c0,0.613,0.519,1.131,1.132,1.131h534.306c0.613,0,1.133-0.518,1.133-1.131V34.489
	c0-0.613-0.52-1.131-1.133-1.131H34.489z"/>
<path fill="#0F7A94" d="M568.795,10H34.489C20.983,10,10,20.983,10,34.489v368.807c0,13.506,10.983,24.49,24.489,24.49h534.306
	c13.506,0,24.49-10.984,24.49-24.49V34.489C593.286,20.983,582.301,10,568.795,10z M579.928,403.296
	c0,6.141-4.992,11.131-11.133,11.131H34.489c-6.141,0-11.132-4.99-11.132-11.131V34.489c0-6.14,4.991-11.131,11.132-11.131h534.306
	c6.141,0,11.133,4.991,11.133,11.131V403.296z"/>
<rect x="312.454" y="54.07" fill="#0F7A94" width="247.4" height="33.357"/>
<rect x="322.454" y="64.07" fill="#0F7A94" width="227.4" height="13.357"/>
<rect x="360.161" y="94.082" fill="#0F7A94" width="199.693" height="33.358"/>
<rect x="370.161" y="104.082" fill="#0F7A94" width="179.693" height="13.358"/>
<rect x="47.604" y="361.39" fill="#0F7A94" width="157.846" height="33.357"/>
<rect x="57.604" y="371.39" fill="#0F7A94" width="137.846" height="13.357"/>
<rect x="47.604" y="322.086" fill="#0F7A94" width="102.45" height="33.358"/>
<rect x="57.604" y="332.084" fill="#0F7A94" width="82.45" height="13.359"/>
<path fill="#0F7A94" d="M61.85,253.294c-23.057-44.345-20.955-96.961,5.625-140.74c26.676-43.927,72.521-70.151,122.636-70.151
	c50.077,0,95.905,26.193,122.588,70.065c26.586,43.728,28.74,96.315,5.762,140.673l-4.674,8.997l-247.268,0.16L61.85,253.294z
	 M80.535,203.82c1.231,8.685,3.488,17.083,6.753,25.104l205.702-0.126c3.299-8.146,5.56-16.685,6.762-25.526h-15.841v-33.358h15.333
	c-2.407-14.047-7.528-27.74-15.051-40.113c-1.713-2.817-3.565-5.583-5.543-8.281l-8.029,8.024l-23.588-23.585l8.245-8.239
	c-14.385-10.909-30.86-17.924-48.487-20.647v15.994h-33.357V77.073c-17.819,2.751-34.449,9.882-48.934,20.984l8.442,8.442
	l-23.585,23.587l-8.11-8.109c-1.877,2.582-3.633,5.218-5.257,7.893c-7.614,12.539-12.76,26.397-15.125,40.593h15.447v33.357H80.535z
	"/>
<path fill="#0F7A94" d="M72.596,252.295l235.115-0.152l1.871-3.601c21.357-41.229,19.332-90.155-5.426-130.876
	c-24.855-40.865-67.485-65.262-114.045-65.262c-46.596,0-89.243,24.429-114.089,65.341c-24.75,40.764-26.732,89.716-5.295,130.946
	L72.596,252.295z M87.441,124.679c3.861-6.358,8.226-12.24,12.971-17.677l8.943,8.942l9.444-9.445l-9.066-9.066
	c20.25-18.693,46.029-29.895,73.699-31.452v17.086h13.357V65.981c27.48,1.545,53.103,12.611,73.293,31.08l-8.905,8.9l9.445,9.443
	l8.83-8.826c4.87,5.531,9.337,11.535,13.285,18.027c10.523,17.306,16.417,36.245,17.783,55.309h-16.609v13.358h16.751
	c-0.648,15.595-4.26,31.046-11.151,45.522L80.78,238.928c-6.853-14.344-10.496-29.65-11.212-45.108h16.744v-13.357H69.642
	C70.928,161.241,76.842,142.133,87.441,124.679z"/>
<path fill="#0F7A94" d="M145.311,208.654l15.176-15.758c-0.392-1.875-0.6-3.776-0.621-5.695c-0.091-8.08,2.975-15.711,8.63-21.487
	c5.489-5.612,13.327-8.834,21.502-8.834c2.056,0,4.113,0.204,6.125,0.603l53.967-54.572l23.717,23.456l-54.092,54.696
	c1.871,9.613-0.991,19.792-7.979,26.946c-5.735,5.871-13.414,9.104-21.624,9.104c-2.026,0-4.038-0.211-6.024-0.632l-14.759,15.323
	L145.311,208.654z"/>
<path fill="#0F7A94" d="M169.065,217.661l12.204-12.67c2.732,1.336,5.718,2.121,8.842,2.121c5.495,0,10.636-2.165,14.471-6.091
	c6.054-6.198,7.264-15.295,3.799-22.719l51.284-51.857l-9.497-9.393l-51.216,51.791c-7.612-3.554-17.287-2.293-23.311,3.867
	c-3.784,3.865-5.836,8.97-5.775,14.379c0.033,2.973,0.754,5.812,1.99,8.418l-12.408,12.884L169.065,217.661z M185.188,182.054
	c1.304-1.334,3.052-2.074,4.923-2.074c1.808,0,3.522,0.7,4.817,1.965c2.714,2.652,2.757,7.022,0.104,9.735
	c-2.574,2.622-7.105,2.679-9.74,0.108c-1.313-1.287-2.053-3.008-2.07-4.848C183.207,185.106,183.902,183.371,185.188,182.054z"/>
</svg>
