<?xml version="1.0" encoding="utf-8"?>
<!-- Generator: Adobe Illustrator 16.0.0, SVG Export Plug-In . SVG Version: 6.00 Build 0)  -->
<!DOCTYPE svg PUBLIC "-//W3C//DTD SVG 1.1//EN" "http://www.w3.org/Graphics/SVG/1.1/DTD/svg11.dtd">
<svg version="1.1" id="Layer_1" xmlns="http://www.w3.org/2000/svg" xmlns:xlink="http://www.w3.org/1999/xlink" x="0px" y="0px"
	 width="800px" height="799.992px" viewBox="0 0 800 799.992" enable-background="new 0 0 800 799.992" xml:space="preserve">
<g>
	<path fill="#0F7A94" d="M788.285,124.854L675.149,11.715c-15.62-15.62-40.947-15.62-56.567,0L247.974,382.324
		c-5.204,5.2-8.872,11.744-10.596,18.9L200.418,554.33c-3.772,26.396,18.856,49.023,45.255,45.252l153.106-36.956
		c7.156-1.728,13.696-5.396,18.9-10.6l370.605-370.609C803.904,165.798,803.904,140.474,788.285,124.854z"/>
	<path fill="#0F7A94" d="M706.338,376.508l-64,63.991c-1.5,1.5-2.344,3.536-2.344,5.656v273.837H79.999V159.998h273.85
		c2.124,0,4.156-0.844,5.66-2.344l64.003-64c5.044-5.04,1.473-13.656-5.656-13.656H40c-22.092,0-40,17.904-40,40v639.994
		c0,22.088,17.908,40,40,40h639.994c22.092,0,40-17.912,40-40V382.164C719.994,375.04,711.377,371.468,706.338,376.508z"/>
</g>
</svg>
