<?xml version="1.0" encoding="utf-8"?>
<!-- Generator: Adobe Illustrator 16.0.0, SVG Export Plug-In . SVG Version: 6.00 Build 0)  -->
<!DOCTYPE svg PUBLIC "-//W3C//DTD SVG 1.1//EN" "http://www.w3.org/Graphics/SVG/1.1/DTD/svg11.dtd">
<svg version="1.1" id="Layer_1" xmlns="http://www.w3.org/2000/svg" xmlns:xlink="http://www.w3.org/1999/xlink" x="0px" y="0px"
	 width="218.245px" height="218.252px" viewBox="0 0 218.245 218.252" enable-background="new 0 0 218.245 218.252"
	 xml:space="preserve">
<path fill="#FFFFFF" d="M138.665,110.379c0,0.24,0,0.49-0.02,0.73c-6.33,0.901-11.201,6.35-11.201,12.93
	c0,2.71,0.82,5.221,2.23,7.311c-5.209,4.979-12.26,8.039-20.02,8.039c-15.99,0-29.01-13.01-29.01-29.01c0-3.03,0.47-5.96,1.34-8.71
	c9.3-2.33,16.62-9.65,18.96-18.96c2.75-0.87,5.68-1.34,8.71-1.34C125.655,81.369,138.665,94.389,138.665,110.379z"/>
<path fill="#FFFFFF" d="M109.654,53.552c-76.56,0-108.58,56.82-108.58,56.82s32.021,56.85,108.58,56.85
	c76.549,0,108.59-56.85,108.59-56.85S186.204,53.552,109.654,53.552z M185.704,131.541c-11.15,8.881-23.439,15.48-36.77,19.761
	c-12.24,3.94-25.369,5.92-39.29,5.92c-13.91,0-27.021-1.979-39.261-5.91c-13.34-4.28-25.64-10.88-36.789-19.771
	c-10.091-8.029-16.841-16.159-20.511-21.169c3.67-5,10.42-13.13,20.511-21.16c18.629-14.84,40.459-23.31,65.029-25.24
	c3.61-0.28,7.29-0.42,11.021-0.42c14.93,0,28.02,2.34,39.389,6.01c31.92,10.34,50.211,31.27,57.189,40.8
	C202.565,115.361,195.793,123.502,185.704,131.541z"/>
<path opacity="0.5" fill="#FFFFFF" d="M166.374,110.382c0,16.08-6.689,30.601-17.439,40.92c-12.24,3.94-25.369,5.92-39.29,5.92
	c-13.91,0-27.021-1.979-39.261-5.91c-10.75-10.319-17.449-24.84-17.449-40.93c0-6,0.93-11.79,2.66-17.22
	c3.97,4.71,9.569,7.99,15.93,8.98c-0.58,2.66-0.88,5.41-0.88,8.24c0,21.51,17.5,39.01,39.01,39.01
	c11.28,0,21.459-4.81,28.569-12.489c0.74,0.139,1.512,0.209,2.291,0.209c7.221,0,13.07-5.85,13.07-13.07
	c0-4.199-1.98-7.939-5.061-10.319c0.09-1.101,0.141-2.22,0.141-3.34c0-21.51-17.5-39.01-39.01-39.01c-2.83,0-5.59,0.3-8.24,0.88
	c-0.46-2.95-1.42-5.74-2.79-8.28c3.61-0.28,7.29-0.42,11.021-0.42c14.93,0,28.02,2.34,39.389,6.01
	C159.723,79.872,166.374,94.352,166.374,110.382z"/>
</svg>
