<?xml version="1.0" encoding="utf-8"?>
<!-- Generator: Adobe Illustrator 16.0.0, SVG Export Plug-In . SVG Version: 6.00 Build 0)  -->
<!DOCTYPE svg PUBLIC "-//W3C//DTD SVG 1.1//EN" "http://www.w3.org/Graphics/SVG/1.1/DTD/svg11.dtd">
<svg version="1.1" id="Layer_1" xmlns="http://www.w3.org/2000/svg" xmlns:xlink="http://www.w3.org/1999/xlink" x="0px" y="0px"
	 width="723.5px" height="576.5px" viewBox="0 0 723.5 576.5" enable-background="new 0 0 723.5 576.5" xml:space="preserve">
<g>
	<path fill="#0F7A94" d="M360.461,327.944c-13.864-13.751-25.056-29.869-33.082-47.532c-4.582,2.482-9.286,4.761-14.12,6.808
		C293.21,295.7,271.92,300,250,300c-21.93,0-43.21-4.3-63.26-12.78c-11.51-4.87-22.32-10.979-32.32-18.29
		C63.77,306.46,0,395.779,0,500h211.366c7.933-27.239,20.127-53.182,36.341-76.991C276.058,381.379,314.904,348.668,360.461,327.944
		z"/>
	<path fill="#0F7A94" d="M184.8,258.59C204.2,269.06,226.41,275,250,275s45.8-5.94,65.2-16.41c1.194-0.644,2.373-1.312,3.545-1.99
		C314.983,242.914,313,228.609,313,214c0-21.657,4.247-42.679,12.622-62.482c8.085-19.114,19.655-36.277,34.388-51.009
		c5.443-5.443,11.221-10.452,17.304-15.016C356.805,35.34,307.535,0,250,0c-75.94,0-137.5,61.56-137.5,137.5
		C112.5,189.85,141.75,235.36,184.8,258.59z"/>
	<path fill="#0F7A94" d="M569.08,345.43c-10.01,7.311-20.82,13.42-32.32,18.291C516.71,372.2,495.42,376.5,473.5,376.5
		c-2.063,0-4.119-0.051-6.17-0.127c-19.751-0.731-38.927-4.971-57.09-12.652c-11.509-4.871-22.32-10.979-32.32-18.291
		C310.48,373.351,257.927,429.94,235.432,500c-7.742,24.111-11.932,49.815-11.932,76.5h500
		C723.5,472.29,659.729,382.96,569.08,345.43z"/>
	<path fill="#0F7A94" d="M336,214c0,9.72,1.013,19.203,2.931,28.353c2.01,9.586,5.022,18.802,8.915,27.54
		c12.401,27.838,33.772,50.799,60.454,65.197c12.684,6.846,26.572,11.738,41.258,14.316c7.777,1.366,15.774,2.094,23.942,2.094
		c23.59,0,45.8-5.939,65.2-16.41C581.75,311.859,611,266.35,611,214c0-75.94-61.56-137.5-137.5-137.5
		c-33.916,0-64.958,12.287-88.935,32.642C354.858,134.363,336,171.977,336,214z"/>
</g>
</svg>
