<?xml version="1.0" encoding="utf-8"?>
<!-- Generator: Adobe Illustrator 16.0.0, SVG Export Plug-In . SVG Version: 6.00 Build 0)  -->
<!DOCTYPE svg PUBLIC "-//W3C//DTD SVG 1.1//EN" "http://www.w3.org/Graphics/SVG/1.1/DTD/svg11.dtd">
<svg version="1.1" xmlns="http://www.w3.org/2000/svg" xmlns:xlink="http://www.w3.org/1999/xlink" x="0px" y="0px" width="723.5px"
	 height="576.5px" viewBox="0 0 723.5 576.5" enable-background="new 0 0 723.5 576.5" xml:space="preserve">
<g id="_x2014_ÎÓÈ_x5F_1_copy">
	<g>
		<path fill="#0F7A94" d="M500,500H0c0-104.22,63.77-193.54,154.42-231.07c10,7.311,20.81,13.42,32.32,18.29
			C206.79,295.7,228.07,300,250,300c21.92,0,43.21-4.3,63.26-12.78c11.5-4.87,22.311-10.979,32.32-18.29
			C436.23,306.46,500,395.79,500,500z"/>
		<path fill="#0F7A94" d="M387.5,137.5c0,52.35-29.25,97.86-72.3,121.09C295.8,269.06,273.59,275,250,275s-45.8-5.94-65.2-16.41
			c-43.05-23.23-72.3-68.74-72.3-121.09C112.5,61.56,174.06,0,250,0C325.94,0,387.5,61.56,387.5,137.5z"/>
	</g>
</g>
<g id="_x2014_ÎÓÈ_x5F_1">
	<g>
		<g>
			<path fill="#0F7A94" d="M212,588v-11.5c0-52.748,15.634-103.585,45.211-147.017c28.867-42.389,69.086-75.128,116.31-94.679
				l5.971-2.472l5.216,3.813c9.229,6.747,19.327,12.461,30.015,16.983C433.345,361.006,453.121,365,473.5,365
				s40.155-3.994,58.78-11.872c10.676-4.521,20.776-10.236,30.018-16.985l5.215-3.809l5.967,2.471
				c47.223,19.551,87.441,52.291,116.31,94.683C719.366,472.92,735,523.756,735,576.5V588H212z"/>
			<path fill="#FFFFFF" d="M569.08,345.43C659.73,382.96,723.5,472.29,723.5,576.5h-500c0-104.22,63.77-193.54,154.42-231.07
				c10,7.311,20.811,13.42,32.32,18.29c20.05,8.48,41.33,12.78,63.26,12.78c21.92,0,43.21-4.3,63.26-12.78
				C548.26,358.85,559.07,352.74,569.08,345.43 M381.062,319.235l-11.939,4.943c-49.3,20.411-91.284,54.586-121.416,98.831
				C216.824,468.357,200.5,521.434,200.5,576.5v23h23h500h23v-23c0-55.063-16.323-108.137-47.205-153.486
				c-30.133-44.248-72.118-78.425-121.417-98.835l-11.933-4.94l-10.431,7.617c-8.528,6.229-17.855,11.506-27.724,15.686
				c-17.19,7.271-35.459,10.959-54.291,10.959s-37.101-3.688-54.3-10.963c-9.869-4.177-19.192-9.45-27.706-15.675L381.062,319.235
				L381.062,319.235z"/>
		</g>
		<g>
			<path fill="#0F7A94" d="M473.5,363c-24.662,0-49.096-6.151-70.662-17.79C354.518,319.136,324.5,268.858,324.5,214
				c0-82.159,66.841-149,149-149s149,66.841,149,149c0,54.858-30.018,105.136-78.339,131.21C522.596,356.849,498.162,363,473.5,363z
				"/>
			<path fill="#FFFFFF" d="M473.5,76.5C549.44,76.5,611,138.06,611,214c0,52.35-29.25,97.859-72.3,121.09
				c-19.4,10.47-41.61,16.41-65.2,16.41s-45.8-5.94-65.2-16.41C365.25,311.859,336,266.35,336,214
				C336,138.06,397.561,76.5,473.5,76.5 M473.5,53.5c-21.657,0-42.679,4.247-62.481,12.622
				c-19.114,8.085-36.276,19.654-51.009,34.387c-14.733,14.732-26.303,31.895-34.388,51.009C317.247,171.321,313,192.343,313,214
				c0,59.091,32.332,113.246,84.377,141.331c23.238,12.54,49.561,19.169,76.123,19.169s52.885-6.629,76.123-19.17
				C601.668,327.246,634,273.091,634,214c0-21.657-4.247-42.679-12.622-62.481c-8.085-19.115-19.654-36.277-34.387-51.01
				c-14.732-14.733-31.895-26.302-51.01-34.387C516.18,57.747,495.157,53.5,473.5,53.5L473.5,53.5z"/>
		</g>
	</g>
</g>
<g id="Layer_3">
	<line fill="none" stroke="#FFFFFF" stroke-width="30" stroke-miterlimit="10" x1="-593.5" y1="683.5" x2="293.5" y2="-203.5"/>
	<line fill="none" stroke="#FFFFFF" stroke-width="30" stroke-miterlimit="10" x1="-493.5" y1="683.5" x2="393.5" y2="-203.5"/>
	<line fill="none" stroke="#FFFFFF" stroke-width="30" stroke-miterlimit="10" x1="-393.5" y1="683.5" x2="493.5" y2="-203.5"/>
	<line fill="none" stroke="#FFFFFF" stroke-width="30" stroke-miterlimit="10" x1="-293.5" y1="683.5" x2="593.5" y2="-203.5"/>
	<line fill="none" stroke="#FFFFFF" stroke-width="30" stroke-miterlimit="10" x1="-193.5" y1="683.5" x2="693.5" y2="-203.5"/>
	<line fill="none" stroke="#FFFFFF" stroke-width="30" stroke-miterlimit="10" x1="-93.5" y1="683.5" x2="793.5" y2="-203.5"/>
	<line fill="none" stroke="#FFFFFF" stroke-width="30" stroke-miterlimit="10" x1="6.5" y1="683.5" x2="893.5" y2="-203.5"/>
	<line fill="none" stroke="#FFFFFF" stroke-width="30" stroke-miterlimit="10" x1="106.5" y1="683.5" x2="993.5" y2="-203.5"/>
	<line fill="none" stroke="#FFFFFF" stroke-width="30" stroke-miterlimit="10" x1="206.5" y1="683.5" x2="1093.5" y2="-203.5"/>
	<line fill="none" stroke="#FFFFFF" stroke-width="30" stroke-miterlimit="10" x1="306.5" y1="683.5" x2="1193.5" y2="-203.5"/>
	<line fill="none" stroke="#FFFFFF" stroke-width="30" stroke-miterlimit="10" x1="406.5" y1="683.5" x2="1293.5" y2="-203.5"/>
	<line fill="none" stroke="#FFFFFF" stroke-width="30" stroke-miterlimit="10" x1="506.5" y1="683.5" x2="1393.5" y2="-203.5"/>
	<line fill="none" stroke="#FFFFFF" stroke-width="30" stroke-miterlimit="10" x1="606.5" y1="683.5" x2="1493.5" y2="-203.5"/>
</g>
</svg>
