<?xml version="1.0" encoding="utf-8"?>
<!-- Generator: Adobe Illustrator 16.0.0, SVG Export Plug-In . SVG Version: 6.00 Build 0)  -->
<!DOCTYPE svg PUBLIC "-//W3C//DTD SVG 1.1//EN" "http://www.w3.org/Graphics/SVG/1.1/DTD/svg11.dtd">
<svg version="1.1" xmlns="http://www.w3.org/2000/svg" xmlns:xlink="http://www.w3.org/1999/xlink" x="0px" y="0px"
	 width="243.394px" height="269.63px" viewBox="0 0 243.394 269.63" enable-background="new 0 0 243.394 269.63"
	 xml:space="preserve">
<g id="Layer_3" display="none">
	<rect x="-86.686" y="-55.849" display="inline" stroke="#FFFFFF" stroke-miterlimit="10" width="433.71" height="388.316"/>
</g>
<g id="Layer_2">
	<g>
		<path fill="#0F7A94" d="M192.205,269.63c28.271,0,51.188-22.917,51.188-51.189c0-20.623-12.202-38.385-29.772-46.491V44.485
			L168.075,0h-42.843h-15.008H0v175.435v15.008v62.002h153.956C163.331,262.984,176.988,269.63,192.205,269.63z M204.327,244.083
			c1.527,0,2.78,1.255,2.78,2.782v1.411c0,1.531-1.253,2.778-2.78,2.778h-2.355c-1.531,0-4.033,0-5.562,0h-8.409
			c-1.53,0-4.031,0-5.562,0h-2.353c-1.532,0-2.783-1.247-2.783-2.778v-1.411c0-1.527,1.251-2.782,2.783-2.782h2.353
			c1.53,0,2.779-1.249,2.779-2.777V214.52c0-1.528-1.249-2.778-2.779-2.778h-2.353c-1.532,0-2.783-1.242-2.783-2.754
			c0-1.516,1.251-2.754,2.783-2.754h2.353c1.53,0,4.031,0,5.562,0h8.409c1.528,0,2.779,1.238,2.779,2.754c0,1.512,0,4.004,0,5.532
			v26.785c0,1.528,1.251,2.777,2.782,2.777H204.327z M192.205,202.446c-4.59,0-8.309-3.722-8.309-8.312
			c0-4.585,3.719-8.309,8.309-8.309s8.31,3.724,8.31,8.309C200.515,198.724,196.795,202.446,192.205,202.446z M15.01,237.437V15.01
			h141.121v41.533h42.482v111.123c-2.102-0.263-4.237-0.413-6.408-0.413c-28.272,0-51.189,22.917-51.189,51.188
			c0,6.715,1.308,13.121,3.656,18.996H15.01z"/>
	</g>
</g>
</svg>
