<?xml version="1.0" encoding="utf-8"?>
<!-- Generator: Adobe Illustrator 16.0.0, SVG Export Plug-In . SVG Version: 6.00 Build 0)  -->
<!DOCTYPE svg PUBLIC "-//W3C//DTD SVG 1.1//EN" "http://www.w3.org/Graphics/SVG/1.1/DTD/svg11.dtd">
<svg version="1.1" id="Layer_1" xmlns="http://www.w3.org/2000/svg" xmlns:xlink="http://www.w3.org/1999/xlink" x="0px" y="0px"
	 width="387.582px" height="386.375px" viewBox="0 0 387.582 386.375" enable-background="new 0 0 387.582 386.375"
	 xml:space="preserve">
<g id="_x31_8">
	<path fill="#117A94" d="M171.956,112.465c-0.134-15.92,12.843-29.031,28.763-29.165c16.188,0,28.897,12.709,28.897,29.031
		c0.134,15.92-12.575,29.031-28.362,29.298C185.334,141.764,172.223,128.653,171.956,112.465z"/>
	<path fill="#117A94" d="M242.192,278.09c-0.401,2.407-1.873,4.949-3.612,6.823c-10.569,10.836-23.278,17.258-38.53,17.525
		c-6.822,0.134-13.914,0.4-20.469-1.071c-17.392-3.612-27.292-18.462-24.482-35.854c3.345-21.005,7.09-41.74,10.703-62.611
		c1.07-6.288,2.408-12.576,3.211-18.864c0.402-2.274,0.133-4.816-0.268-6.956c-0.803-4.281-2.943-6.154-7.09-6.823
		c-2.274-0.268-4.549-0.134-6.689-0.669c-2.676-0.803-5.753-1.739-7.894-3.345c-3.746-2.809-2.943-8.294,1.338-10.167
		c2.14-1.071,4.816-1.605,7.224-1.605c9.499-0.134,19.131,0,28.496,0h28.497c6.822,0,10.302,3.479,11.238,10.301
		c0.936,6.823-1.473,13.246-2.676,19.801c-3.479,19.666-7.226,39.199-10.703,58.73c-1.204,6.689-2.408,13.379-3.479,20.202
		c-0.268,2.007-0.134,4.281,0,6.288c1.204,8.695,6.153,11.907,14.448,9.766c2.542-0.669,4.817-2.14,7.225-3.345
		c2.274-1.07,4.549-2.542,6.957-3.479C239.783,271.133,243.128,273.809,242.192,278.09z"/>
	<path fill="#117A94" d="M58.814,386.375h-1.549c-14.939-0.092-24.111-3.998-28.031-11.955c-1.404-2.861-3.965-10.412,2.548-18.983
		L52.556,327.7c2.462-3.175,3.874-5.142,4.436-6.631C22.793,285.448,4,238.911,4,189.63C4,85.065,89.065,0,193.63,0
		c104.493,0,189.493,85.065,189.493,189.63c0,104.487-85,189.494-189.493,189.494c-20.525,0-40.671-3.28-59.902-9.747
		c-0.875,0.196-1.437,0.431-1.725,0.601c-7.591,3.555-14.332,6.232-21.472,8.61c-2.496,0.783-4.808,1.385-7.12,1.985l-3.208,0.85
		C88.138,384.715,74.224,386.375,58.814,386.375z M193.63,26.757c-89.808,0-162.873,73.065-162.873,162.873
		c0,43.336,16.932,84.21,47.674,115.095l1.62,1.626l0.986,2.064c3.077,6.487,3.586,13.653,1.463,20.734
		c-2.091,6.056-5.232,10.348-8.551,14.619l-11.751,15.822c11.654-0.21,22.04-1.542,30.924-3.972l3.599-0.954
		c1.849-0.471,3.704-0.94,5.553-1.528c5.977-1.999,11.797-4.305,17.592-6.996c3.306-1.868,8.022-3.221,13.587-3.698l4.168-0.045
		l2.169,0.771c17.219,6.101,35.34,9.198,53.84,9.198c89.729,0,162.736-73.001,162.736-162.737
		C356.366,99.822,283.359,26.757,193.63,26.757z"/>
</g>
</svg>
