<?xml version="1.0" encoding="utf-8"?>
<!-- Generator: Adobe Illustrator 21.0.0, SVG Export Plug-In . SVG Version: 6.00 Build 0)  -->
<svg version="1.1" id="Layer_1" xmlns="http://www.w3.org/2000/svg" xmlns:xlink="http://www.w3.org/1999/xlink" x="0px" y="0px"
	 viewBox="0 0 189.1 108.8" style="enable-background:new 0 0 189.1 108.8;" xml:space="preserve">
<style type="text/css">
	.st0{clip-path:url(#SVGID_1_);fill:#E5231B;}
	.st1{clip-path:url(#SVGID_1_);fill:#9C1252;}
	.st2{clip-path:url(#SVGID_1_);fill:#EA5297;}
	.st3{clip-path:url(#SVGID_2_);fill:#E5231B;}
	.st4{clip-path:url(#SVGID_2_);fill:#9C1252;}
	.st5{clip-path:url(#SVGID_2_);fill:#EA5297;}
</style>
<g>
	<defs>
		<rect id="SVGID_5_" x="-28.2" y="-27.6" width="243.1" height="137.7"/>
	</defs>
	<clipPath id="SVGID_1_">
		<use xlink:href="#SVGID_5_"  style="overflow:visible;"/>
	</clipPath>
	<path class="st0" d="M98.4,25.7h32.1c1.7,0,3.4-0.2,5.1-0.5c3.9-7.5,6.1-16.1,6.1-25.2h-29.1c0,14.2-11.5,25.7-25.7,25.7H54.8
		C24.6,25.7,0,50.3,0,80.5h29.1c0-12.4,8.9-22.8,20.6-25.2C58.9,37.7,77.2,25.7,98.4,25.7"/>
	<path class="st1" d="M49.7,55.3c1.6-0.3,3.3-0.5,5.1-0.5h32.1c21.1,0,39.5-12,48.7-29.6c-1.6,0.3-3.3,0.5-5.1,0.5H98.4
		C77.2,25.7,58.9,37.7,49.7,55.3"/>
	<path class="st2" d="M156.2,0c0,12.4-8.9,22.8-20.6,25.2c-9.1,17.6-27.5,29.6-48.7,29.6H54.8c-1.7,0-3.4,0.2-5.1,0.5
		c-3.9,7.5-6.1,16.1-6.1,25.2h29.1c0-14.2,11.5-25.7,25.7-25.7h32.1c30.2,0,54.8-24.6,54.8-54.8H156.2z"/>
</g>
<g>
	<defs>
		<rect id="SVGID_7_" x="83.8" y="67.8" width="105.3" height="41"/>
	</defs>
	<clipPath id="SVGID_2_">
		<use xlink:href="#SVGID_7_"  style="overflow:visible;"/>
	</clipPath>
	<path class="st3" d="M110,87.1c0.1-0.1,0.2-0.3,0.3-0.5c0.1-0.2,0.1-0.4,0.1-0.6v-3.7h4.9v3.7c0,0.2,0,0.4,0.1,0.6
		c0.1,0.2,0.2,0.3,0.3,0.5c0.1,0.1,0.3,0.2,0.5,0.3c0.2,0.1,0.4,0.1,0.6,0.1c0.2,0,0.4,0,0.6-0.1c0.2-0.1,0.3-0.2,0.5-0.3
		c0.1-0.1,0.2-0.3,0.3-0.5c0.1-0.2,0.1-0.4,0.1-0.6v-3.7c0.1,0.3,0.2,0.6,0.3,0.9c0.4,0.9,0.9,1.7,1.5,2.3c0.7,0.7,1.4,1.2,2.3,1.6
		c0.9,0.4,1.8,0.6,2.8,0.6c1,0,2-0.2,2.8-0.6c0.9-0.4,1.7-0.9,2.3-1.6c0.7-0.7,1.2-1.4,1.6-2.3c0.1-0.2,0.2-0.5,0.3-0.7
		c0,0.6,0.2,1.2,0.3,1.7c0.2,0.7,0.6,1.3,1,1.8s1,0.9,1.6,1.2c0.7,0.3,1.4,0.4,2.2,0.4c0.8,0,1.6-0.1,2.3-0.4
		c0.7-0.3,1.2-0.7,1.7-1.2c0.5-0.5,0.8-1.1,1.1-1.9c0.2-0.7,0.4-1.5,0.4-2.4v-7.2c0-0.2,0-0.4-0.1-0.6c-0.1-0.2-0.2-0.3-0.3-0.5
		c-0.1-0.1-0.3-0.2-0.5-0.3c-0.2-0.1-0.4-0.1-0.6-0.1c-0.2,0-0.4,0-0.6,0.1c-0.2,0.1-0.3,0.2-0.5,0.3c-0.1,0.1-0.2,0.3-0.3,0.5
		c-0.1,0.2-0.1,0.4-0.1,0.6v7.2c0,0.9-0.2,1.6-0.6,2.1c-0.4,0.5-1,0.8-1.7,0.8c-0.8,0-1.3-0.2-1.7-0.7c-0.4-0.5-0.6-1.2-0.6-2.2
		v-7.2c0-0.2,0-0.4-0.1-0.6c-0.1-0.2-0.2-0.3-0.3-0.5c-0.1-0.1-0.3-0.2-0.5-0.3c-0.2-0.1-0.4-0.1-0.6-0.1c-0.2,0-0.4,0-0.6,0.1
		c-0.2,0.1-0.3,0.2-0.5,0.3c-0.1,0.1-0.2,0.3-0.3,0.5c-0.1,0.2-0.1,0.4-0.1,0.6v3.6c-0.2-0.5-0.4-1-0.7-1.5c-0.3-0.5-0.7-1-1.1-1.5
		c-0.4-0.4-0.9-0.8-1.5-1.1c-0.5-0.3-1.1-0.6-1.7-0.7c-0.6-0.2-1.3-0.3-1.9-0.3c-1,0-1.9,0.2-2.8,0.6c-0.9,0.4-1.7,0.9-2.3,1.6
		c-0.7,0.7-1.2,1.4-1.6,2.3c-0.1,0.3-0.2,0.6-0.3,0.9v-3.8c0-0.2,0-0.4-0.1-0.6c-0.1-0.2-0.2-0.3-0.3-0.5c-0.1-0.1-0.3-0.2-0.5-0.3
		c-0.2-0.1-0.4-0.1-0.6-0.1c-0.2,0-0.4,0-0.6,0.1c-0.2,0.1-0.3,0.2-0.5,0.3c-0.1,0.1-0.2,0.3-0.3,0.5c-0.1,0.2-0.1,0.4-0.1,0.6v4.8
		h-4.9v-4.8c0-0.2,0-0.4-0.1-0.6c-0.1-0.2-0.2-0.3-0.3-0.5c-0.1-0.1-0.3-0.2-0.5-0.3c-0.2-0.1-0.4-0.1-0.6-0.1c-0.2,0-0.4,0-0.6,0.1
		c-0.2,0.1-0.3,0.2-0.5,0.3c-0.1,0.1-0.2,0.3-0.3,0.5c-0.1,0.2-0.1,0.4-0.1,0.6v0.7c0,0,0,0,0,0c-0.7-0.7-1.5-1.3-2.4-1.6
		c-0.9-0.4-1.8-0.5-2.7-0.5c-1.1,0-2,0.2-2.9,0.6c-0.9,0.4-1.6,0.9-2.3,1.6c-0.6,0.7-1.1,1.5-1.5,2.3c-0.3,0.8-0.5,1.6-0.5,2.5
		c-0.3-0.2-0.6-0.4-1-0.5c-0.5-0.2-1-0.3-1.5-0.4c-0.5-0.1-1-0.2-1.3-0.3c-0.4-0.1-0.7-0.2-1-0.3c-0.3-0.1-0.5-0.3-0.6-0.4
		c-0.1-0.2-0.2-0.4-0.2-0.7c0-0.2,0-0.4,0.1-0.6c0.1-0.2,0.2-0.3,0.4-0.5c0.2-0.1,0.4-0.2,0.7-0.3c0.3-0.1,0.5-0.1,0.9-0.1
		c0.3,0,0.6,0,0.8,0.1c0.2,0,0.4,0.1,0.6,0.2s0.3,0.2,0.5,0.3c0.2,0.1,0.3,0.2,0.5,0.4c0.1,0.1,0.3,0.2,0.4,0.2
		c0.1,0,0.3,0.1,0.4,0.1c0.2,0,0.4,0,0.5-0.1c0.2-0.1,0.3-0.2,0.4-0.3c0.1-0.1,0.2-0.3,0.3-0.4C96,76.2,96,76,96,75.8
		c0-0.1,0-0.2,0-0.3c0-0.1-0.1-0.2-0.1-0.3c-0.2-0.4-0.5-0.7-0.8-0.9c-0.3-0.3-0.7-0.5-1.1-0.7c-0.4-0.2-0.8-0.3-1.2-0.4
		c-0.4-0.1-0.9-0.1-1.3-0.1c-0.7,0-1.3,0.1-1.9,0.3c-0.6,0.2-1.1,0.5-1.6,0.9c-0.5,0.4-0.8,0.9-1.1,1.4c-0.3,0.5-0.4,1.1-0.4,1.8
		c0,0.6,0.1,1.2,0.4,1.7c0.2,0.5,0.6,0.9,1,1.3c0.4,0.4,1,0.7,1.6,0.9c0.6,0.2,1.4,0.4,2.2,0.6c0.2,0,0.5,0.1,0.7,0.1
		c0.2,0,0.5,0.1,0.7,0.2c0.2,0.1,0.4,0.2,0.5,0.4c0.1,0.2,0.2,0.4,0.2,0.7c0,0.2-0.1,0.4-0.2,0.6c-0.1,0.2-0.3,0.3-0.5,0.4
		s-0.4,0.2-0.7,0.3c-0.3,0.1-0.5,0.1-0.8,0.1c-0.6,0-1.1-0.1-1.5-0.3c-0.4-0.2-0.8-0.5-1.1-0.9c-0.2-0.3-0.4-0.5-0.7-0.6
		c-0.2-0.1-0.4-0.2-0.7-0.2c-0.2,0-0.3,0-0.5,0.1c-0.2,0.1-0.3,0.2-0.5,0.3c-0.1,0.1-0.2,0.3-0.3,0.4c-0.1,0.2-0.1,0.4-0.1,0.6
		c0,0.2,0.1,0.5,0.2,0.8c0.2,0.4,0.4,0.8,0.8,1.1c0.3,0.3,0.7,0.6,1.1,0.9c0.4,0.3,0.9,0.5,1.4,0.6c0.5,0.2,1.1,0.2,1.7,0.2
		c0.8,0,1.4-0.1,2.1-0.4c0.6-0.2,1.2-0.6,1.6-1c0.5-0.4,0.8-0.9,1.1-1.4c0.1-0.1,0.1-0.2,0.1-0.3c0.2,0.3,0.5,0.7,0.8,0.9
		c0.4,0.4,0.9,0.8,1.5,1.1c0.5,0.3,1.1,0.6,1.7,0.7c0.6,0.2,1.2,0.3,1.9,0.3c0.9,0,1.9-0.2,2.8-0.5c0.9-0.4,1.7-0.9,2.4-1.6
		c0,0,0,0,0,0v0.6c0,0.2,0,0.4,0.1,0.6c0.1,0.2,0.2,0.3,0.3,0.5c0.1,0.1,0.3,0.2,0.5,0.3c0.2,0.1,0.4,0.1,0.6,0.1
		c0.2,0,0.4,0,0.6-0.1C109.7,87.4,109.8,87.3,110,87.1 M121.3,78.7c0.2-0.5,0.5-1,0.9-1.4c0.4-0.4,0.9-0.7,1.4-0.9
		c0.5-0.2,1.1-0.3,1.7-0.3s1.2,0.1,1.7,0.3c0.5,0.2,1,0.5,1.4,0.9c0.4,0.4,0.7,0.9,0.9,1.4c0.2,0.5,0.3,1.1,0.3,1.7
		c0,0.6-0.1,1.2-0.3,1.7c-0.2,0.5-0.5,1-0.9,1.4c-0.4,0.4-0.9,0.7-1.4,0.9c-0.5,0.2-1.1,0.3-1.7,0.3s-1.2-0.1-1.7-0.3
		c-0.5-0.2-1-0.5-1.4-0.9c-0.4-0.4-0.7-0.9-0.9-1.4c-0.2-0.5-0.3-1.1-0.3-1.7C121,79.8,121.1,79.2,121.3,78.7 M107.4,83.5
		c-0.1-0.1-0.3-0.2-0.5-0.3c-0.2-0.1-0.4-0.1-0.6-0.1c-0.2,0-0.4,0-0.6,0.1c-0.2,0.1-0.3,0.2-0.5,0.3c-0.5,0.5-0.9,0.8-1.4,1
		c-0.5,0.2-1.1,0.3-1.6,0.3c-0.6,0-1.2-0.1-1.7-0.4c-0.5-0.2-1-0.5-1.4-1c-0.4-0.4-0.7-0.9-0.9-1.4c-0.2-0.5-0.3-1.1-0.3-1.7
		c0-0.6,0.1-1.2,0.4-1.7c0.2-0.5,0.5-1,0.9-1.4c0.4-0.4,0.9-0.7,1.4-0.9s1.1-0.3,1.7-0.3c0.6,0,1.1,0.1,1.7,0.3c0.5,0.2,1,0.5,1.5,1
		c0.1,0.1,0.3,0.2,0.5,0.3c0.2,0.1,0.3,0.1,0.5,0.1c0.2,0,0.4,0,0.6-0.1c0.2-0.1,0.3-0.2,0.5-0.3c0,0,0,0,0,0L107.4,83.5
		C107.4,83.5,107.4,83.5,107.4,83.5 M144.5,87.1c0.1,0.1,0.3,0.2,0.5,0.3c0.2,0.1,0.4,0.1,0.6,0.1h3.7c1,0,1.9-0.2,2.8-0.6
		c0.9-0.4,1.6-0.9,2.3-1.5c0.7-0.6,1.2-1.4,1.5-2.3c0,0,0-0.1,0.1-0.1v3c0,0.2,0,0.4,0.1,0.6c0.1,0.2,0.2,0.3,0.3,0.5
		c0.1,0.1,0.3,0.2,0.5,0.3s0.4,0.1,0.6,0.1h6.4c0.2,0,0.4,0,0.6-0.1c0.2-0.1,0.3-0.2,0.5-0.3c0.1-0.1,0.2-0.2,0.2-0.3
		c0.1,0.1,0.1,0.2,0.2,0.3c0.1,0.1,0.3,0.2,0.5,0.3c0.2,0.1,0.4,0.1,0.6,0.1s0.4,0,0.6-0.1c0.2-0.1,0.3-0.2,0.5-0.3
		c0.1-0.1,0.2-0.3,0.3-0.5c0.1-0.2,0.1-0.4,0.1-0.6l0.1-2.7l3.7,3.7c0.2,0.2,0.3,0.3,0.5,0.3c0.2,0.1,0.4,0.1,0.6,0.1
		c0.2,0,0.4,0,0.6-0.1c0.2-0.1,0.3-0.2,0.5-0.3c0.1-0.1,0.2-0.3,0.3-0.5c0.1-0.2,0.1-0.4,0.1-0.6c0-0.2,0-0.4-0.1-0.6
		c-0.1-0.2-0.2-0.3-0.3-0.5l-2.2-2.2c0.5-0.2,0.9-0.4,1.3-0.6c0.4-0.3,0.8-0.6,1.1-1c0.3-0.4,0.6-0.8,0.7-1.3
		c0.1-0.3,0.2-0.6,0.2-0.9c0,0,0,0.1,0.1,0.1c0.2,0.5,0.6,0.9,1,1.3c0.4,0.4,1,0.7,1.6,0.9c0.6,0.2,1.4,0.4,2.2,0.6
		c0.2,0,0.5,0.1,0.7,0.1c0.2,0,0.5,0.1,0.7,0.2c0.2,0.1,0.4,0.2,0.5,0.4c0.1,0.2,0.2,0.4,0.2,0.7c0,0.2-0.1,0.4-0.2,0.6
		c-0.1,0.2-0.3,0.3-0.5,0.4c-0.2,0.1-0.4,0.2-0.7,0.3c-0.3,0.1-0.5,0.1-0.8,0.1c-0.6,0-1.1-0.1-1.5-0.3c-0.4-0.2-0.8-0.5-1.1-0.9
		c-0.2-0.3-0.4-0.5-0.7-0.6c-0.2-0.1-0.4-0.2-0.7-0.2c-0.2,0-0.3,0-0.5,0.1c-0.2,0.1-0.3,0.2-0.5,0.3c-0.1,0.1-0.2,0.3-0.3,0.4
		c-0.1,0.2-0.1,0.4-0.1,0.6c0,0.2,0.1,0.5,0.2,0.8c0.2,0.4,0.4,0.8,0.8,1.1c0.3,0.3,0.7,0.6,1.1,0.9c0.4,0.3,0.9,0.5,1.4,0.6
		c0.5,0.2,1.1,0.2,1.7,0.2c0.8,0,1.4-0.1,2.1-0.4c0.6-0.2,1.2-0.6,1.6-1c0.5-0.4,0.8-0.9,1.1-1.4c0.3-0.5,0.4-1.1,0.4-1.7
		c0-0.6-0.1-1.2-0.4-1.6c-0.2-0.5-0.5-0.8-0.9-1.2c-0.4-0.3-0.8-0.6-1.3-0.8c-0.5-0.2-1-0.3-1.5-0.4c-0.5-0.1-1-0.2-1.3-0.3
		c-0.4-0.1-0.7-0.2-1-0.3c-0.3-0.1-0.5-0.3-0.6-0.4c-0.1-0.2-0.2-0.4-0.2-0.7c0-0.2,0-0.4,0.1-0.6c0.1-0.2,0.2-0.3,0.4-0.5
		c0.2-0.1,0.4-0.2,0.7-0.3c0.3-0.1,0.5-0.1,0.9-0.1c0.3,0,0.6,0,0.8,0.1c0.2,0,0.4,0.1,0.6,0.2s0.3,0.2,0.5,0.3
		c0.2,0.1,0.3,0.2,0.5,0.4c0.1,0.1,0.3,0.2,0.4,0.2c0.1,0,0.3,0.1,0.4,0.1c0.2,0,0.4,0,0.5-0.1c0.2-0.1,0.3-0.2,0.4-0.3
		c0.1-0.1,0.2-0.3,0.3-0.4c0.1-0.2,0.1-0.3,0.1-0.5c0-0.1,0-0.2,0-0.3c0-0.1-0.1-0.2-0.1-0.3c-0.2-0.4-0.5-0.7-0.8-0.9
		c-0.3-0.3-0.7-0.5-1.1-0.7c-0.4-0.2-0.8-0.3-1.2-0.4c-0.4-0.1-0.9-0.1-1.3-0.1c-0.7,0-1.3,0.1-1.9,0.3c-0.6,0.2-1.1,0.5-1.6,0.9
		c-0.5,0.4-0.8,0.9-1.1,1.4c-0.1,0.3-0.2,0.6-0.3,0.9c0-0.1-0.1-0.3-0.2-0.4c-0.3-0.6-0.6-1.2-1.1-1.6c-0.5-0.5-1-0.8-1.6-1.1
		c-0.6-0.3-1.3-0.4-2-0.4c-0.7,0-1.4,0.1-2,0.4c-0.6,0.3-1.1,0.7-1.6,1.1c-0.4,0.5-0.8,1-1,1.7c-0.2,0.6-0.4,1.3-0.4,2.1
		c0,0.1,0,0.1,0,0.1c0,0,0,0.1,0,0.2v0.1V85c0,0,0,0,0,0c-0.1-0.1-0.3-0.2-0.5-0.3c-0.2-0.1-0.4-0.1-0.6-0.1l-4.8,0v-2.7h3.4
		c0.2,0,0.4,0,0.6-0.1c0.2-0.1,0.3-0.2,0.5-0.3c0.1-0.1,0.2-0.3,0.3-0.5c0.1-0.2,0.1-0.4,0.1-0.6c0-0.2,0-0.4-0.1-0.6
		c-0.1-0.2-0.2-0.3-0.3-0.5c-0.1-0.1-0.3-0.2-0.5-0.3c-0.2-0.1-0.4-0.1-0.6-0.1H159v-2.8h4.8c0.2,0,0.4,0,0.6-0.1
		c0.2-0.1,0.3-0.2,0.5-0.3s0.2-0.3,0.3-0.5c0.1-0.2,0.1-0.4,0.1-0.6c0-0.2,0-0.4-0.1-0.6c-0.1-0.2-0.2-0.3-0.3-0.5s-0.3-0.2-0.5-0.3
		c-0.2-0.1-0.4-0.1-0.6-0.1h-6.4c-0.1,0-0.1,0-0.2,0c-0.1,0-0.1,0-0.2,0c-0.3,0.1-0.5,0.3-0.7,0.5c-0.2,0.3-0.3,0.6-0.3,0.9v3.1
		c-0.1-0.4-0.3-0.7-0.5-1c-0.3-0.5-0.7-1-1.1-1.4c-0.4-0.4-0.9-0.8-1.4-1.1c-0.5-0.3-1.1-0.6-1.7-0.7c-0.6-0.2-1.2-0.3-1.9-0.3h-3.7
		c-0.2,0-0.4,0-0.6,0.1c-0.2,0.1-0.3,0.2-0.5,0.3c-0.1,0.1-0.2,0.3-0.3,0.5c-0.1,0.2-0.1,0.4-0.1,0.6v11.5c0,0.2,0,0.4,0.1,0.6
		C144.3,86.8,144.4,87,144.5,87.1 M168.1,77.5c0.1-0.3,0.2-0.5,0.4-0.7c0.2-0.2,0.4-0.3,0.6-0.4c0.2-0.1,0.5-0.2,0.8-0.2
		c0.3,0,0.6,0,0.8,0.1c0.3,0.1,0.5,0.2,0.7,0.4c0.2,0.2,0.3,0.4,0.5,0.7c0.1,0.3,0.2,0.6,0.2,0.9c0,0.3-0.1,0.6-0.2,0.8
		c-0.1,0.3-0.3,0.5-0.5,0.7c-0.2,0.2-0.4,0.3-0.7,0.5c-0.3,0.1-0.5,0.2-0.8,0.2c-0.3,0-0.6-0.1-0.8-0.2c-0.2-0.1-0.5-0.3-0.6-0.4
		c-0.2-0.2-0.3-0.4-0.4-0.7c-0.1-0.3-0.2-0.5-0.2-0.8C168,78.1,168,77.8,168.1,77.5 M147.1,76.1h2.3c0.6,0,1.1,0.1,1.6,0.3
		c0.5,0.2,0.9,0.5,1.3,0.9c0.4,0.4,0.7,0.8,0.9,1.4c0.2,0.5,0.3,1.1,0.3,1.7c0,0.6-0.1,1.1-0.3,1.6c-0.2,0.5-0.5,0.9-0.9,1.3
		c-0.4,0.4-0.8,0.7-1.3,0.9c-0.5,0.2-1,0.3-1.6,0.3h-2.3V76.1z"/>
	<path class="st3" d="M86.7,54.2h11.4c0.6,0,1.2-0.1,1.8-0.2c1.4-2.7,2.2-5.7,2.2-8.9H91.7c0,5-4.1,9.1-9.1,9.1H71.2
		c-10.7,0-19.5,8.7-19.5,19.5H62c0-4.4,3.2-8.1,7.3-8.9C72.6,58.4,79.1,54.2,86.7,54.2"/>
	<path class="st4" d="M69.4,64.7c0.6-0.1,1.2-0.2,1.8-0.2h11.4c7.5,0,14-4.3,17.3-10.5c-0.6,0.1-1.2,0.2-1.8,0.2H86.7
		C79.1,54.2,72.6,58.4,69.4,64.7"/>
	<path class="st5" d="M107.2,45c0,4.4-3.2,8.1-7.3,8.9c-3.2,6.2-9.8,10.5-17.3,10.5H71.2c-0.6,0-1.2,0.1-1.8,0.2
		c-1.4,2.7-2.2,5.7-2.2,8.9h10.4c0-5,4.1-9.1,9.1-9.1h11.4c10.7,0,19.5-8.7,19.5-19.5H107.2z"/>
	<path class="st5" d="M148.9,91.7c-0.5-0.5-1-0.9-1.7-1.2c-0.7-0.3-1.4-0.4-2.3-0.4c-0.8,0-1.6,0.1-2.2,0.4
		c-0.7,0.3-1.2,0.7-1.7,1.2c-0.4,0.5-0.8,1.1-1,1.8c-0.1,0.4-0.2,0.8-0.3,1.2c-0.1-0.3-0.3-0.7-0.5-1c-0.3-0.5-0.7-1-1.1-1.5
		c-0.4-0.4-0.9-0.8-1.5-1.1c-0.5-0.3-1.1-0.6-1.7-0.7c-0.6-0.2-1.3-0.3-1.9-0.3c-1,0-1.9,0.2-2.8,0.6c-0.9,0.4-1.7,0.9-2.3,1.6
		c-0.6,0.6-1.1,1.3-1.4,2.1c-0.1-0.4-0.2-0.7-0.3-1.1c-0.3-0.6-0.6-1.2-1.1-1.6c-0.5-0.5-1-0.8-1.6-1.1c-0.6-0.3-1.3-0.4-2-0.4
		c-0.7,0-1.4,0.1-2,0.4c-0.6,0.3-1.1,0.7-1.6,1.1c-0.4,0.5-0.8,1-1,1.7c-0.2,0.6-0.4,1.3-0.4,2.1c0,0.1,0,0.1,0,0.1c0,0,0,0.1,0,0.2
		v0.1v6.3c0,0-0.1-0.1-0.1-0.1c-0.1-0.1-0.3-0.2-0.5-0.3c-0.2-0.1-0.4-0.1-0.6-0.1l-4.8,0v-2.7h3.4c0.2,0,0.4,0,0.6-0.1
		c0.2-0.1,0.3-0.2,0.5-0.3c0.1-0.1,0.2-0.3,0.3-0.5c0.1-0.2,0.1-0.4,0.1-0.6s0-0.4-0.1-0.6c-0.1-0.2-0.2-0.3-0.3-0.5
		c-0.1-0.1-0.3-0.2-0.5-0.3c-0.2-0.1-0.4-0.1-0.6-0.1h-3.4v-2.8h4.8c0.2,0,0.4,0,0.6-0.1c0.2-0.1,0.3-0.2,0.5-0.3
		c0.1-0.1,0.2-0.3,0.3-0.5c0.1-0.2,0.1-0.4,0.1-0.6c0-0.2,0-0.4-0.1-0.6c-0.1-0.2-0.2-0.3-0.3-0.5c-0.1-0.1-0.3-0.2-0.5-0.3
		c-0.2-0.1-0.4-0.1-0.6-0.1h-6.4c-0.1,0-0.1,0-0.2,0c-0.1,0-0.1,0-0.2,0c-0.3,0.1-0.5,0.3-0.7,0.5c-0.2,0.3-0.3,0.6-0.3,0.9V103
		c0,0.2,0,0.4,0.1,0.6c0.1,0.2,0.2,0.3,0.3,0.5s0.3,0.2,0.5,0.3c0.2,0.1,0.4,0.1,0.6,0.1h6.4c0.2,0,0.4,0,0.6-0.1
		c0.2-0.1,0.3-0.2,0.5-0.3c0.1-0.1,0.2-0.2,0.3-0.4c0.1,0.2,0.2,0.3,0.3,0.4c0.1,0.1,0.3,0.2,0.5,0.3c0.2,0.1,0.4,0.1,0.6,0.1
		c0.2,0,0.4,0,0.6-0.1c0.2-0.1,0.3-0.2,0.5-0.3c0.1-0.1,0.2-0.3,0.3-0.5c0.1-0.2,0.1-0.4,0.1-0.6l0.1-2.7l3.7,3.7
		c0.2,0.2,0.3,0.3,0.5,0.3c0.2,0.1,0.4,0.1,0.6,0.1c0.2,0,0.4,0,0.6-0.1c0.2-0.1,0.3-0.2,0.5-0.3c0.1-0.1,0.2-0.3,0.3-0.5
		c0.1-0.2,0.1-0.4,0.1-0.6c0-0.2,0-0.4-0.1-0.6c-0.1-0.2-0.2-0.3-0.3-0.5l-2.2-2.2c0.5-0.2,0.9-0.4,1.3-0.6c0.4-0.3,0.8-0.6,1.1-1
		c0.1-0.1,0.2-0.2,0.2-0.3c0.1,0.8,0.2,1.6,0.5,2.3c0.4,0.9,0.9,1.7,1.5,2.3c0.7,0.7,1.4,1.2,2.3,1.6c0.9,0.4,1.8,0.6,2.8,0.6
		c1,0,2-0.2,2.8-0.6c0.9-0.4,1.7-0.9,2.3-1.6c0.6-0.6,1.2-1.4,1.5-2.3v2.9c0,0.2,0,0.4,0.1,0.6c0.1,0.2,0.2,0.3,0.3,0.5
		c0.1,0.1,0.3,0.2,0.5,0.3c0.2,0.1,0.4,0.1,0.6,0.1c0.2,0,0.4,0,0.6-0.1c0.2-0.1,0.3-0.2,0.5-0.3c0.1-0.1,0.2-0.3,0.3-0.5
		c0.1-0.2,0.1-0.4,0.1-0.6V96c0-1,0.2-1.8,0.6-2.2c0.4-0.5,1-0.7,1.7-0.7s1.3,0.3,1.7,0.8c0.4,0.5,0.6,1.2,0.6,2.2v7.2
		c0,0.2,0,0.4,0.1,0.6c0.1,0.2,0.2,0.3,0.3,0.5c0.1,0.1,0.3,0.2,0.5,0.3c0.2,0.1,0.4,0.1,0.6,0.1c0.2,0,0.4,0,0.6-0.1
		c0.2-0.1,0.3-0.2,0.5-0.3c0.1-0.1,0.2-0.3,0.3-0.5c0.1-0.2,0.1-0.4,0.1-0.6V96c0-0.9-0.1-1.7-0.4-2.4
		C149.7,92.8,149.4,92.2,148.9,91.7 M123.4,96.1c-0.1,0.3-0.3,0.5-0.5,0.7c-0.2,0.2-0.4,0.3-0.7,0.5c-0.3,0.1-0.5,0.2-0.8,0.2
		s-0.6-0.1-0.8-0.2c-0.2-0.1-0.5-0.3-0.6-0.4c-0.2-0.2-0.3-0.4-0.4-0.7c-0.1-0.3-0.2-0.5-0.2-0.8c0-0.3,0.1-0.6,0.2-0.8
		c0.1-0.3,0.2-0.5,0.4-0.7c0.2-0.2,0.4-0.3,0.6-0.4c0.2-0.1,0.5-0.2,0.8-0.2s0.6,0,0.8,0.1c0.3,0.1,0.5,0.2,0.7,0.4
		c0.2,0.2,0.3,0.4,0.5,0.7c0.1,0.3,0.2,0.6,0.2,0.9C123.6,95.6,123.5,95.8,123.4,96.1 M137,99.1c-0.2,0.5-0.5,1-0.9,1.4
		c-0.4,0.4-0.9,0.7-1.4,0.9c-0.5,0.2-1.1,0.3-1.7,0.3c-0.6,0-1.2-0.1-1.7-0.3c-0.5-0.2-1-0.5-1.4-0.9c-0.4-0.4-0.7-0.9-0.9-1.4
		c-0.2-0.5-0.3-1.1-0.3-1.7c0-0.6,0.1-1.2,0.3-1.7c0.2-0.5,0.5-1,0.9-1.4c0.4-0.4,0.9-0.7,1.4-0.9c0.5-0.2,1.1-0.3,1.7-0.3
		c0.6,0,1.2,0.1,1.7,0.3c0.5,0.2,1,0.5,1.4,0.9c0.4,0.4,0.7,0.9,0.9,1.4c0.2,0.5,0.3,1.1,0.3,1.7C137.4,98,137.3,98.5,137,99.1
		 M181.3,91.6c-0.5-0.5-1-0.8-1.6-1.1c-0.6-0.3-1.3-0.4-2-0.4c-0.7,0-1.4,0.1-2,0.4c-0.6,0.3-1.1,0.7-1.6,1.1c-0.4,0.5-0.8,1-1,1.7
		c-0.2,0.6-0.4,1.3-0.4,2.1c0,0.1,0,0.1,0,0.1c0,0,0,0.1,0,0.2v0.1v6.4c-0.1-0.1-0.1-0.2-0.2-0.2c-0.1-0.1-0.3-0.2-0.5-0.3
		c-0.2-0.1-0.4-0.1-0.6-0.1l-4.8,0v-2.7h3.4c0.2,0,0.4,0,0.6-0.1c0.2-0.1,0.3-0.2,0.5-0.3c0.1-0.1,0.2-0.3,0.3-0.5
		c0.1-0.2,0.1-0.4,0.1-0.6s0-0.4-0.1-0.6c-0.1-0.2-0.2-0.3-0.3-0.5c-0.1-0.1-0.3-0.2-0.5-0.3c-0.2-0.1-0.4-0.1-0.6-0.1h-3.4v-2.8
		h4.8c0.2,0,0.4,0,0.6-0.1c0.2-0.1,0.3-0.2,0.5-0.3c0.1-0.1,0.2-0.3,0.3-0.5c0.1-0.2,0.1-0.4,0.1-0.6c0-0.2,0-0.4-0.1-0.6
		c-0.1-0.2-0.2-0.3-0.3-0.5c-0.1-0.1-0.3-0.2-0.5-0.3c-0.2-0.1-0.4-0.1-0.6-0.1H165c-0.1,0-0.1,0-0.2,0s-0.2,0-0.2,0
		c-0.3,0.1-0.5,0.3-0.7,0.5s-0.3,0.6-0.3,0.9v3.1c-0.1-0.4-0.3-0.7-0.5-1c-0.3-0.5-0.7-1-1.1-1.4c-0.4-0.4-0.9-0.8-1.4-1.1
		c-0.5-0.3-1.1-0.6-1.7-0.7c-0.6-0.2-1.2-0.3-1.9-0.3h-3.7c-0.2,0-0.4,0-0.6,0.1c-0.2,0.1-0.3,0.2-0.5,0.3c-0.1,0.1-0.2,0.3-0.3,0.5
		c-0.1,0.2-0.1,0.4-0.1,0.6V103c0,0.2,0,0.4,0.1,0.6c0.1,0.2,0.2,0.3,0.3,0.5c0.1,0.1,0.3,0.2,0.5,0.3c0.2,0.1,0.4,0.1,0.6,0.1h3.7
		c1,0,1.9-0.2,2.8-0.6s1.6-0.9,2.3-1.5c0.7-0.6,1.2-1.4,1.5-2.3c0,0,0-0.1,0.1-0.1v3c0,0.2,0,0.4,0.1,0.6c0.1,0.2,0.2,0.3,0.3,0.5
		s0.3,0.2,0.5,0.3c0.2,0.1,0.4,0.1,0.6,0.1h6.4c0.2,0,0.4,0,0.6-0.1c0.2-0.1,0.3-0.2,0.5-0.3c0.1-0.1,0.2-0.3,0.3-0.4c0,0,0,0,0,0
		c0.1,0.2,0.2,0.3,0.3,0.5c0.1,0.1,0.3,0.2,0.5,0.3c0.2,0.1,0.4,0.1,0.6,0.1c0.2,0,0.4,0,0.6-0.1c0.2-0.1,0.3-0.2,0.5-0.3
		c0.1-0.1,0.2-0.3,0.3-0.5c0.1-0.2,0.1-0.4,0.1-0.6l0.1-2.7l3.7,3.7c0.2,0.2,0.3,0.3,0.5,0.3c0.2,0.1,0.4,0.1,0.6,0.1
		c0.2,0,0.4,0,0.6-0.1c0.2-0.1,0.3-0.2,0.5-0.3c0.1-0.1,0.2-0.3,0.3-0.5c0.1-0.2,0.1-0.4,0.1-0.6c0-0.2,0-0.4-0.1-0.6
		c-0.1-0.2-0.2-0.3-0.3-0.5l-2.2-2.2c0.5-0.2,0.9-0.4,1.3-0.6c0.4-0.3,0.8-0.6,1.1-1c0.3-0.4,0.6-0.8,0.7-1.3c0.2-0.5,0.3-1,0.3-1.6
		c0-0.8-0.1-1.5-0.4-2.1C182.1,92.6,181.7,92.1,181.3,91.6 M160.7,99c-0.2,0.5-0.5,0.9-0.9,1.3c-0.4,0.4-0.8,0.7-1.3,0.9
		c-0.5,0.2-1,0.3-1.6,0.3h-2.3v-8.4h2.3c0.6,0,1.1,0.1,1.6,0.3c0.5,0.2,0.9,0.5,1.3,0.9c0.4,0.4,0.7,0.8,0.9,1.4
		c0.2,0.5,0.3,1.1,0.3,1.7C161,98,160.9,98.5,160.7,99 M179.7,96.1c-0.1,0.3-0.3,0.5-0.5,0.7c-0.2,0.2-0.4,0.3-0.7,0.5
		c-0.3,0.1-0.5,0.2-0.8,0.2c-0.3,0-0.6-0.1-0.8-0.2c-0.2-0.1-0.5-0.3-0.6-0.4c-0.2-0.2-0.3-0.4-0.4-0.7c-0.1-0.3-0.2-0.5-0.2-0.8
		c0-0.3,0.1-0.6,0.2-0.8c0.1-0.3,0.2-0.5,0.4-0.7c0.2-0.2,0.4-0.3,0.6-0.4c0.2-0.1,0.5-0.2,0.8-0.2c0.3,0,0.6,0,0.8,0.1
		c0.3,0.1,0.5,0.2,0.7,0.4c0.2,0.2,0.3,0.4,0.5,0.7c0.1,0.3,0.2,0.6,0.2,0.9C179.9,95.6,179.8,95.8,179.7,96.1"/>
</g>
</svg>
