<?xml version="1.0" encoding="utf-8"?>
<!-- Generator: Adobe Illustrator 16.0.0, SVG Export Plug-In . SVG Version: 6.00 Build 0)  -->
<!DOCTYPE svg PUBLIC "-//W3C//DTD SVG 1.1//EN" "http://www.w3.org/Graphics/SVG/1.1/DTD/svg11.dtd">
<svg version="1.1" xmlns="http://www.w3.org/2000/svg" xmlns:xlink="http://www.w3.org/1999/xlink" x="0px" y="0px"
	 width="321.488px" height="231.829px" viewBox="0 0 321.488 231.829" enable-background="new 0 0 321.488 231.829"
	 xml:space="preserve">
<g id="Layer_1">
	<g id="Layer_1_1_" display="none">
	</g>
	<g id="Øàð_1">
		<path fill="#107A94" d="M17.777,211.027c-0.945,0.067-1.89-0.259-2.589-0.914c-0.699-0.649-1.098-1.563-1.098-2.521V24.136H7.654
			v195.195h139.054c-2.521-0.99-5.551-2.022-9.204-3.031c-13.481-3.741-35.375-7.219-70.149-7.219
			C52.283,209.081,35.607,209.735,17.777,211.027z M67.354,202.187c40.502,0,64.26,4.536,77.961,9.173
			c5.061,1.715,8.745,3.439,11.404,4.958V22.473c-0.639-0.51-1.678-1.26-3.26-2.162c-1.945-1.103-4.697-2.431-8.484-3.83
			c-12.285-4.491-35.5-9.588-77.621-9.588c-14.17,0-29.75,0.579-46.375,1.72v195.288C37.579,202.767,53.165,202.187,67.354,202.187z
			 M306.293,210.114c-0.693,0.654-1.639,0.98-2.597,0.913c-17.815-1.292-34.492-1.946-49.574-1.946
			c-34.773,0-56.661,3.478-70.144,7.219c-3.655,1.009-6.686,2.041-9.199,3.031h139.062V24.136h-6.45v183.458
			C307.39,208.549,306.998,209.463,306.293,210.114z M321.488,24.136v195.195c0,4.221-3.433,7.653-7.647,7.653H181.005
			c-4.498,2.937-11.9,4.845-20.255,4.845c-8.372,0-15.769-1.908-20.272-4.845H7.654c-4.221,0-7.654-3.435-7.654-7.653V24.136
			c0-4.214,3.434-7.654,7.654-7.654h6.438V5.406c0-1.801,1.395-3.301,3.195-3.433C35.273,0.668,52.119,0,67.354,0
			c63.981,0,86.177,11.328,92.968,16.481h0.845C167.957,11.322,190.146,0,254.122,0c15.239,0,32.086,0.668,50.085,1.973
			c1.796,0.132,3.184,1.632,3.184,3.433v11.076h6.45C318.056,16.481,321.488,19.921,321.488,24.136z M300.503,203.901V8.613
			c-16.612-1.141-32.206-1.72-46.381-1.72c-42.114,0-65.324,5.097-77.603,9.588c-3.8,1.399-6.56,2.728-8.493,3.83
			c-1.587,0.901-2.627,1.651-3.264,2.162v193.845c2.657-1.519,6.344-3.243,11.402-4.958c13.702-4.637,37.453-9.173,77.956-9.173
			C268.322,202.187,283.902,202.767,300.503,203.901z"/>
	</g>
</g>
<g id="Layer_2">
	<g>
		<circle fill="#0E7A94" cx="231.412" cy="165.635" r="21.747"/>
		<path fill="#0E7A94" d="M234.724,25.677c-20.071,0-36.309,11.133-50.36,28.996l23.42,21.745
			c6.825-8.821,13.894-16.331,22.526-16.331c7.027,0,14.855,5.329,14.855,13.71c0,12.134-31.918,23.602-31.918,43.896v17.645h37.338
			v-12.134c0-13.231,31.914-20.292,31.914-48.965C282.5,44.463,261.426,25.677,234.724,25.677z"/>
	</g>
</g>
</svg>
