<?xml version="1.0" encoding="utf-8"?>
<!-- Generator: Adobe Illustrator 16.0.0, SVG Export Plug-In . SVG Version: 6.00 Build 0)  -->
<!DOCTYPE svg PUBLIC "-//W3C//DTD SVG 1.1//EN" "http://www.w3.org/Graphics/SVG/1.1/DTD/svg11.dtd">
<svg version="1.1" xmlns="http://www.w3.org/2000/svg" xmlns:xlink="http://www.w3.org/1999/xlink" x="0px" y="0px"
	 width="321.488px" height="231.829px" viewBox="0 0 321.488 231.829" enable-background="new 0 0 321.488 231.829"
	 xml:space="preserve">
<g id="Layer_1" display="none">
</g>
<g id="Øàð_1">
	<path fill="#107A94" d="M17.777,211.027c-0.945,0.068-1.89-0.259-2.589-0.914c-0.699-0.649-1.097-1.563-1.097-2.52V24.136H7.654
		V219.33h139.054c-2.521-0.989-5.551-2.022-9.204-3.03c-13.482-3.742-35.375-7.22-70.15-7.22
		C52.283,209.08,35.607,209.735,17.777,211.027z M67.354,202.187c40.502,0,64.26,4.536,77.961,9.173
		c5.061,1.714,8.745,3.44,11.404,4.958V22.473c-0.638-0.51-1.677-1.26-3.259-2.162c-1.946-1.103-4.698-2.431-8.485-3.83
		c-12.285-4.491-35.5-9.588-77.621-9.588c-14.17,0-29.75,0.579-46.375,1.72v195.288C37.579,202.767,53.165,202.187,67.354,202.187z
		 M306.293,210.113c-0.694,0.655-1.639,0.982-2.597,0.914c-17.815-1.292-34.492-1.947-49.574-1.947
		c-34.774,0-56.661,3.478-70.144,7.22c-3.655,1.008-6.685,2.041-9.199,3.03H313.84V24.136h-6.45v183.458
		C307.39,208.55,306.998,209.463,306.293,210.113z M321.488,24.136V219.33c0,4.221-3.433,7.654-7.648,7.654H181.005
		c-4.498,2.937-11.901,4.845-20.255,4.845c-8.372,0-15.769-1.908-20.273-4.845H7.654C3.433,226.984,0,223.55,0,219.33V24.136
		c0-4.214,3.433-7.654,7.654-7.654h6.438V5.406c0-1.801,1.394-3.301,3.195-3.433C35.273,0.668,52.119,0,67.354,0
		c63.982,0,86.177,11.328,92.968,16.481h0.845C167.957,11.322,190.146,0,254.122,0c15.239,0,32.086,0.668,50.085,1.973
		c1.796,0.132,3.183,1.632,3.183,3.433v11.076h6.45C318.056,16.481,321.488,19.921,321.488,24.136z M300.503,203.901V8.613
		c-16.613-1.141-32.206-1.72-46.381-1.72c-42.114,0-65.324,5.097-77.603,9.588c-3.8,1.399-6.559,2.728-8.493,3.83
		c-1.587,0.901-2.627,1.651-3.264,2.162v193.845c2.658-1.518,6.344-3.244,11.403-4.958c13.702-4.637,37.453-9.173,77.956-9.173
		C268.322,202.187,283.902,202.767,300.503,203.901z M266.363,162.774v25.761c0,1.575-1.279,2.86-2.86,2.86H201.77
		c-1.581,0-2.86-1.285-2.86-2.86v-25.761c0-1.581,1.279-2.859,2.86-2.859h7.358v-57.652h-7.358c-1.581,0-2.86-1.278-2.86-2.859
		V73.647c0-1.581,1.279-2.866,2.86-2.866h51.515c1.581,0,2.86,1.285,2.86,2.866v86.268h7.358
		C265.084,159.915,266.363,161.193,266.363,162.774z M232.634,13.136c14.004,0,25.351,11.347,25.351,25.344
		c0,14.005-11.347,25.352-25.351,25.352c-14,0-25.345-11.346-25.345-25.352C207.289,24.483,218.634,13.136,232.634,13.136z"/>
</g>
</svg>
