<?xml version="1.0" encoding="utf-8"?>
<!-- Generator: Adobe Illustrator 16.0.0, SVG Export Plug-In . SVG Version: 6.00 Build 0)  -->
<!DOCTYPE svg PUBLIC "-//W3C//DTD SVG 1.1//EN" "http://www.w3.org/Graphics/SVG/1.1/DTD/svg11.dtd">
<svg version="1.1" xmlns="http://www.w3.org/2000/svg" xmlns:xlink="http://www.w3.org/1999/xlink" x="0px" y="0px"
	 width="602.893px" height="308px" viewBox="0 0 602.893 308" enable-background="new 0 0 602.893 308" xml:space="preserve">
<g id="Layer_1">
	<g>
		<path fill="#0F7A94" d="M423.292,265.845H178.887c-8.812,0-15.981-7.168-15.981-15.98V51.825c0-8.811,7.169-15.98,15.981-15.98
			h244.405c8.813,0,15.981,7.169,15.981,15.98v198.039C439.273,258.676,432.104,265.845,423.292,265.845z M178.887,49.604
			c-1.226,0-2.223,0.997-2.223,2.222v198.039c0,1.225,0.997,2.222,2.223,2.222h244.405c1.225,0,2.223-0.997,2.223-2.222V51.825
			c0-1.225-0.998-2.222-2.223-2.222H178.887z"/>
		<path fill="#0F7A94" d="M432.394,93.715H169.785c-3.8,0-6.879-3.08-6.879-6.879c0-3.799,3.08-6.879,6.879-6.879h262.608
			c3.8,0,6.88,3.081,6.88,6.879C439.273,90.635,436.193,93.715,432.394,93.715z"/>
		<path fill="#0F7A94" d="M169.781,93.716c-1.55,0-3.108-0.521-4.394-1.589c-2.922-2.429-3.321-6.766-0.894-9.688l36.664-44.111
			c2.428-2.922,6.766-3.322,9.688-0.894c2.922,2.428,3.322,6.766,0.894,9.687l-36.664,44.112
			C173.715,92.87,171.755,93.716,169.781,93.716z"/>
		<path fill="#0F7A94" d="M206.445,93.716c-1.55,0-3.108-0.521-4.394-1.589c-2.922-2.429-3.321-6.766-0.894-9.688l36.664-44.111
			c2.428-2.922,6.765-3.322,9.688-0.894c2.922,2.428,3.321,6.766,0.893,9.687l-36.663,44.112
			C210.379,92.87,208.419,93.716,206.445,93.716z"/>
		<path fill="#0F7A94" d="M243.108,93.716c-1.549,0-3.108-0.521-4.394-1.589c-2.922-2.429-3.321-6.766-0.893-9.688l36.663-44.111
			c2.428-2.922,6.766-3.322,9.688-0.894c2.922,2.428,3.322,6.766,0.894,9.687l-36.664,44.112
			C247.043,92.87,245.083,93.716,243.108,93.716z"/>
		<path fill="#0F7A94" d="M279.772,93.716c-1.549,0-3.108-0.521-4.393-1.589c-2.922-2.429-3.322-6.766-0.894-9.688l36.664-44.111
			c2.428-2.922,6.766-3.322,9.688-0.894s3.323,6.766,0.893,9.687l-36.662,44.112C283.707,92.87,281.747,93.716,279.772,93.716z"/>
		<path fill="#0F7A94" d="M316.436,93.716c-1.549,0-3.109-0.521-4.395-1.589c-2.922-2.429-3.32-6.766-0.893-9.688l36.664-44.111
			c2.428-2.922,6.766-3.322,9.688-0.894s3.321,6.766,0.893,9.687l-36.664,44.112C320.369,92.87,318.408,93.716,316.436,93.716z"/>
		<path fill="#0F7A94" d="M353.099,93.716c-1.549,0-3.108-0.521-4.394-1.589c-2.922-2.429-3.321-6.766-0.893-9.688l36.664-44.111
			c2.428-2.922,6.765-3.322,9.687-0.894c2.923,2.428,3.321,6.766,0.894,9.687l-36.664,44.112
			C357.032,92.87,355.073,93.716,353.099,93.716z"/>
		<path fill="#0F7A94" d="M389.763,93.716c-1.55,0-3.108-0.521-4.394-1.589c-2.922-2.429-3.32-6.766-0.893-9.688l36.664-44.111
			c2.428-2.922,6.765-3.322,9.686-0.894c2.924,2.428,3.322,6.766,0.895,9.687l-36.664,44.112
			C393.696,92.87,391.736,93.716,389.763,93.716z"/>
		<path fill="#0F7A94" d="M301.089,234.041c-32.473,0-58.893-26.419-58.893-58.894c0-32.474,26.419-58.893,58.893-58.893
			c32.473,0,58.894,26.419,58.894,58.893C359.982,207.621,333.562,234.041,301.089,234.041z M301.089,130.013
			c-24.886,0-45.134,20.247-45.134,45.134c0,24.888,20.248,45.135,45.134,45.135c24.888,0,45.135-20.247,45.135-45.135
			C346.224,150.26,325.977,130.013,301.089,130.013z"/>
		<path fill="#0F7A94" d="M288.295,206.173c-1.463,0-2.927-0.345-4.237-0.997c-3.244-1.614-5.262-4.873-5.262-8.501v-44.269
			c0-3.627,2.017-6.885,5.265-8.502c1.307-0.651,2.771-0.996,4.233-0.996c1.913,0,3.809,0.592,5.385,1.673l35.55,22.022
			c0.181,0.112,0.358,0.233,0.529,0.362c2.358,1.784,3.767,4.617,3.767,7.574c0,2.96-1.408,5.792-3.768,7.577
			c-0.17,0.128-0.348,0.25-0.528,0.361l-35.55,22.022C292.103,205.581,290.208,206.173,288.295,206.173z M292.555,160.069v28.943
			l23.361-14.472L292.555,160.069z"/>
	</g>
</g>
<g id="Layer_4">
</g>
<g id="Layer_3">
</g>
</svg>
