<?xml version="1.0" encoding="utf-8"?>
<!-- Generator: Adobe Illustrator 16.0.0, SVG Export Plug-In . SVG Version: 6.00 Build 0)  -->
<!DOCTYPE svg PUBLIC "-//W3C//DTD SVG 1.1//EN" "http://www.w3.org/Graphics/SVG/1.1/DTD/svg11.dtd">
<svg version="1.1" xmlns="http://www.w3.org/2000/svg" xmlns:xlink="http://www.w3.org/1999/xlink" x="0px" y="0px"
	 width="450.943px" height="253.657px" viewBox="126.947 16.843 450.943 253.657"
	 enable-background="new 126.947 16.843 450.943 253.657" xml:space="preserve">
<g id="Layer_2">
	<rect x="126.947" y="16.843" fill="#FFFFFF" width="450.943" height="253.657"/>
</g>
<g id="Layer_1">
	<g id="Layer_1_1_">
		<g>
			<path fill="#0F7A94" d="M479.202,258.671H234.798c-8.812,0-15.981-7.168-15.981-15.979V44.651c0-8.811,7.17-15.98,15.981-15.98
				h244.404c8.813,0,15.981,7.169,15.981,15.98v198.04C495.184,251.501,488.015,258.671,479.202,258.671z M234.798,42.43
				c-1.226,0-2.223,0.997-2.223,2.222v198.039c0,1.225,0.997,2.223,2.223,2.223h244.404c1.226,0,2.224-0.998,2.224-2.223V44.651
				c0-1.225-0.998-2.222-2.224-2.222L234.798,42.43L234.798,42.43z"/>
			<path fill="#0F7A94" d="M488.305,86.541H225.697c-3.801,0-6.88-3.08-6.88-6.879s3.08-6.879,6.88-6.879h262.606
				c3.801,0,6.881,3.081,6.881,6.879C495.184,83.461,492.104,86.541,488.305,86.541z"/>
			<path fill="#0F7A94" d="M225.692,86.542c-1.55,0-3.107-0.521-4.394-1.589c-2.922-2.429-3.321-6.766-0.894-9.688l36.664-44.111
				c2.428-2.922,6.766-3.322,9.688-0.894c2.922,2.428,3.322,6.766,0.894,9.687l-36.663,44.112
				C229.626,85.696,227.666,86.542,225.692,86.542z"/>
			<path fill="#0F7A94" d="M262.356,86.542c-1.55,0-3.107-0.521-4.394-1.589c-2.922-2.429-3.321-6.766-0.894-9.688l36.663-44.111
				c2.429-2.922,6.766-3.322,9.688-0.894c2.922,2.428,3.321,6.766,0.893,9.687l-36.662,44.112
				C266.29,85.696,264.33,86.542,262.356,86.542z"/>
			<path fill="#0F7A94" d="M299.019,86.542c-1.549,0-3.107-0.521-4.394-1.589c-2.922-2.429-3.321-6.766-0.894-9.688l36.663-44.111
				c2.429-2.922,6.767-3.322,9.688-0.894c2.922,2.428,3.322,6.766,0.894,9.687l-36.664,44.112
				C302.954,85.696,300.994,86.542,299.019,86.542z"/>
			<path fill="#0F7A94" d="M335.683,86.542c-1.549,0-3.107-0.521-4.393-1.589c-2.922-2.429-3.322-6.766-0.895-9.688l36.665-44.111
				c2.428-2.922,6.766-3.322,9.688-0.894c2.922,2.428,3.322,6.766,0.893,9.687L340.98,84.059
				C339.618,85.696,337.658,86.542,335.683,86.542z"/>
			<path fill="#0F7A94" d="M372.347,86.542c-1.549,0-3.108-0.521-4.395-1.589c-2.923-2.429-3.32-6.766-0.894-9.688l36.663-44.111
				c2.429-2.922,6.767-3.322,9.688-0.894c2.923,2.428,3.321,6.766,0.894,9.687L377.64,84.059
				C376.28,85.696,374.319,86.542,372.347,86.542z"/>
			<path fill="#0F7A94" d="M409.01,86.542c-1.549,0-3.107-0.521-4.395-1.589c-2.922-2.429-3.32-6.766-0.894-9.688l36.664-44.111
				c2.429-2.922,6.766-3.322,9.688-0.894c2.924,2.428,3.321,6.766,0.895,9.687l-36.664,44.112
				C412.943,85.696,410.984,86.542,409.01,86.542z"/>
			<path fill="#0F7A94" d="M445.674,86.542c-1.55,0-3.107-0.521-4.395-1.589c-2.922-2.429-3.319-6.766-0.894-9.688l36.664-44.111
				c2.429-2.922,6.766-3.322,9.687-0.894c2.925,2.428,3.322,6.766,0.896,9.687l-36.664,44.112
				C449.607,85.696,447.647,86.542,445.674,86.542z"/>
			<path fill="#0F7A94" d="M357,226.867c-32.473,0-58.894-26.418-58.894-58.895c0-32.475,26.419-58.893,58.894-58.893
				c32.473,0,58.895,26.418,58.895,58.893C415.893,200.447,389.473,226.867,357,226.867z M357,122.839
				c-24.886,0-45.134,20.246-45.134,45.133c0,24.889,20.248,45.137,45.134,45.137c24.888,0,45.135-20.248,45.135-45.137
				C402.135,143.085,381.888,122.839,357,122.839z"/>
			<path fill="#0F7A94" d="M344.206,199c-1.463,0-2.927-0.346-4.237-0.998c-3.244-1.612-5.262-4.873-5.262-8.5v-44.27
				c0-3.627,2.017-6.885,5.265-8.502c1.308-0.65,2.771-0.996,4.233-0.996c1.913,0,3.809,0.592,5.385,1.674l35.55,22.021
				c0.181,0.111,0.357,0.232,0.528,0.361c2.357,1.783,3.768,4.617,3.768,7.574c0,2.959-1.408,5.791-3.769,7.576
				c-0.17,0.129-0.349,0.25-0.527,0.36l-35.55,22.022C348.014,198.408,346.119,199,344.206,199z M348.466,152.894v28.943
				l23.36-14.473L348.466,152.894z"/>
		</g>
	</g>
	<g id="Layer_4">
	</g>
	<g id="Layer_3">
	</g>
</g>
</svg>
