<?xml version="1.0" encoding="utf-8"?>
<!-- Generator: Adobe Illustrator 16.0.0, SVG Export Plug-In . SVG Version: 6.00 Build 0)  -->
<!DOCTYPE svg PUBLIC "-//W3C//DTD SVG 1.1//EN" "http://www.w3.org/Graphics/SVG/1.1/DTD/svg11.dtd">
<svg version="1.1" id="Layer_2" xmlns="http://www.w3.org/2000/svg" xmlns:xlink="http://www.w3.org/1999/xlink" x="0px" y="0px"
	 width="164.535px" height="164.535px" viewBox="0 0 164.535 164.535" enable-background="new 0 0 164.535 164.535"
	 xml:space="preserve">
<g>
	<path fill="#107A94" d="M80.411,119.888c-12.007,0-21.745,9.735-21.745,21.746c0,12.01,9.738,21.748,21.745,21.748
		c12.013,0,21.747-9.738,21.747-21.748C102.158,129.623,92.424,119.888,80.411,119.888z"/>
	<path fill="#107A94" d="M83.725,1.676c-20.072,0-36.309,11.133-50.361,28.996l23.42,21.745
		c6.826-8.821,13.894-16.331,22.526-16.331c7.027,0,14.855,5.329,14.855,13.71c0,12.134-31.918,23.602-31.918,43.896v17.645h37.338
		V99.202c0-13.231,31.914-20.292,31.914-48.965C131.499,20.463,110.425,1.676,83.725,1.676z"/>
</g>
</svg>
