<?xml version="1.0" encoding="utf-8"?>
<!-- Generator: Adobe Illustrator 16.0.0, SVG Export Plug-In . SVG Version: 6.00 Build 0)  -->
<!DOCTYPE svg PUBLIC "-//W3C//DTD SVG 1.1//EN" "http://www.w3.org/Graphics/SVG/1.1/DTD/svg11.dtd">
<svg version="1.1" xmlns="http://www.w3.org/2000/svg" xmlns:xlink="http://www.w3.org/1999/xlink" x="0px" y="0px"
	 width="602.893px" height="308px" viewBox="0 0 602.893 308" enable-background="new 0 0 602.893 308" xml:space="preserve">
<g id="Layer_1" display="none">
	<g display="inline">
		<path fill="#0F7A94" d="M423.292,265.845H178.887c-8.812,0-15.981-7.168-15.981-15.98V51.825c0-8.811,7.169-15.98,15.981-15.98
			h244.405c8.813,0,15.981,7.169,15.981,15.98v198.039C439.273,258.676,432.104,265.845,423.292,265.845z M178.887,49.604
			c-1.226,0-2.223,0.997-2.223,2.222v198.039c0,1.225,0.997,2.222,2.223,2.222h244.405c1.225,0,2.223-0.997,2.223-2.222V51.825
			c0-1.225-0.998-2.222-2.223-2.222H178.887z"/>
		<path fill="#0F7A94" d="M432.394,93.715H169.785c-3.8,0-6.879-3.08-6.879-6.879c0-3.799,3.08-6.879,6.879-6.879h262.608
			c3.8,0,6.88,3.081,6.88,6.879C439.273,90.635,436.193,93.715,432.394,93.715z"/>
		<path fill="#0F7A94" d="M169.781,93.716c-1.55,0-3.108-0.521-4.394-1.589c-2.922-2.429-3.321-6.766-0.894-9.688l36.664-44.111
			c2.428-2.922,6.766-3.322,9.688-0.894c2.922,2.428,3.322,6.766,0.894,9.687l-36.664,44.112
			C173.715,92.87,171.755,93.716,169.781,93.716z"/>
		<path fill="#0F7A94" d="M206.445,93.716c-1.55,0-3.108-0.521-4.394-1.589c-2.922-2.429-3.321-6.766-0.894-9.688l36.664-44.111
			c2.428-2.922,6.765-3.322,9.688-0.894c2.922,2.428,3.321,6.766,0.893,9.687l-36.663,44.112
			C210.379,92.87,208.419,93.716,206.445,93.716z"/>
		<path fill="#0F7A94" d="M243.108,93.716c-1.549,0-3.108-0.521-4.394-1.589c-2.922-2.429-3.321-6.766-0.893-9.688l36.663-44.111
			c2.428-2.922,6.766-3.322,9.688-0.894c2.922,2.428,3.322,6.766,0.894,9.687l-36.664,44.112
			C247.043,92.87,245.083,93.716,243.108,93.716z"/>
		<path fill="#0F7A94" d="M279.772,93.716c-1.549,0-3.108-0.521-4.393-1.589c-2.922-2.429-3.322-6.766-0.894-9.688l36.664-44.111
			c2.428-2.922,6.766-3.322,9.688-0.894s3.323,6.766,0.893,9.687l-36.662,44.112C283.707,92.87,281.747,93.716,279.772,93.716z"/>
		<path fill="#0F7A94" d="M316.436,93.716c-1.549,0-3.109-0.521-4.395-1.589c-2.922-2.429-3.32-6.766-0.893-9.688l36.664-44.111
			c2.428-2.922,6.766-3.322,9.688-0.894s3.321,6.766,0.893,9.687l-36.664,44.112C320.369,92.87,318.408,93.716,316.436,93.716z"/>
		<path fill="#0F7A94" d="M353.099,93.716c-1.549,0-3.108-0.521-4.394-1.589c-2.922-2.429-3.321-6.766-0.893-9.688l36.664-44.111
			c2.428-2.922,6.765-3.322,9.687-0.894c2.923,2.428,3.321,6.766,0.894,9.687l-36.664,44.112
			C357.032,92.87,355.073,93.716,353.099,93.716z"/>
		<path fill="#0F7A94" d="M389.763,93.716c-1.55,0-3.108-0.521-4.394-1.589c-2.922-2.429-3.32-6.766-0.893-9.688l36.664-44.111
			c2.428-2.922,6.765-3.322,9.686-0.894c2.924,2.428,3.322,6.766,0.895,9.687l-36.664,44.112
			C393.696,92.87,391.736,93.716,389.763,93.716z"/>
		<path fill="#0F7A94" d="M301.089,234.041c-32.473,0-58.893-26.419-58.893-58.894c0-32.474,26.419-58.893,58.893-58.893
			c32.473,0,58.894,26.419,58.894,58.893C359.982,207.621,333.562,234.041,301.089,234.041z M301.089,130.013
			c-24.886,0-45.134,20.247-45.134,45.134c0,24.888,20.248,45.135,45.134,45.135c24.888,0,45.135-20.247,45.135-45.135
			C346.224,150.26,325.977,130.013,301.089,130.013z"/>
		<path fill="#0F7A94" d="M288.295,206.173c-1.463,0-2.927-0.345-4.237-0.997c-3.244-1.614-5.262-4.873-5.262-8.501v-44.269
			c0-3.627,2.017-6.885,5.265-8.502c1.307-0.651,2.771-0.996,4.233-0.996c1.913,0,3.809,0.592,5.385,1.673l35.55,22.022
			c0.181,0.112,0.358,0.233,0.529,0.362c2.358,1.784,3.767,4.617,3.767,7.574c0,2.96-1.408,5.792-3.768,7.577
			c-0.17,0.128-0.348,0.25-0.528,0.361l-35.55,22.022C292.103,205.581,290.208,206.173,288.295,206.173z M292.555,160.069v28.943
			l23.361-14.472L292.555,160.069z"/>
	</g>
</g>
<g id="Layer_4">
</g>
<g id="score" display="none">
	<g display="inline">
		<g>
			<path fill="#0F7A94" d="M222.888,250.355V52.729h18.56V37.974h-20.033c-7.32,0-13.281,5.961-13.281,13.281v200.576
				c0,7.326,5.961,13.281,13.281,13.281h85.295c-3.057-4.519-5.514-9.478-7.27-14.756H222.888z"/>
		</g>
		<g>
			<path fill="#0F7A94" d="M371.337,172.891c5.221,1.301,10.172,3.287,14.754,5.865v-127.5c0-7.32-5.961-13.281-13.279-13.281
				h-20.035v14.755h18.561V172.891z"/>
		</g>
		<g>
			<path fill="#0F7A94" d="M268.08,59.417h58.064c9.273,0,16.799-7.525,16.799-16.804v-6.325c0-2.565-2.1-4.666-4.658-4.666h-19.377
				c0-12.036-9.76-21.794-21.795-21.794c-12.037,0-21.795,9.758-21.795,21.794h-19.376c-2.559,0-4.659,2.1-4.659,4.666v6.325
				C251.282,51.893,258.807,59.417,268.08,59.417z M297.112,22.682c4.939,0,8.941,4.008,8.941,8.941
				c0,4.939-4.002,8.948-8.941,8.948c-4.941,0-8.943-4.008-8.943-8.948C288.169,26.69,292.171,22.682,297.112,22.682z"/>
		</g>
		<g>
			<path fill="#0F7A94" d="M267.05,196.431c-0.559-0.559-1.301-0.867-2.091-0.867c-0.791,0-1.533,0.308-2.093,0.867l-15.177,15.177
				l-6.579-6.58c-0.559-0.559-1.302-0.866-2.092-0.866s-1.532,0.308-2.091,0.866l-2.504,2.504c-1.153,1.154-1.153,3.03,0,4.183
				l11.175,11.175c0.559,0.559,1.301,0.866,2.091,0.866s1.533-0.308,2.092-0.866l19.772-19.773c0.559-0.559,0.866-1.301,0.866-2.091
				c0-0.791-0.308-1.533-0.866-2.092L267.05,196.431z"/>
		</g>
		<g>
			<path fill="#0F7A94" d="M269.554,158.727l-2.504-2.504c-0.559-0.559-1.301-0.866-2.091-0.866c-0.791,0-1.533,0.308-2.093,0.866
				L247.69,171.4l-6.579-6.579c-0.559-0.558-1.302-0.866-2.092-0.866s-1.532,0.308-2.091,0.866l-2.504,2.504
				c-1.153,1.154-1.153,3.03,0,4.183l11.175,11.175c0.559,0.559,1.301,0.866,2.091,0.866s1.533-0.307,2.092-0.866l19.772-19.773
				c0.559-0.559,0.866-1.301,0.866-2.092C270.42,160.028,270.113,159.286,269.554,158.727z"/>
		</g>
		<g>
			<path fill="#0F7A94" d="M269.554,118.52l-2.504-2.503c-0.559-0.559-1.301-0.867-2.091-0.867c-0.791,0-1.533,0.308-2.093,0.867
				l-15.177,15.177l-6.579-6.579c-0.559-0.559-1.302-0.867-2.092-0.867s-1.532,0.308-2.091,0.867l-2.504,2.503
				c-1.153,1.154-1.153,3.03,0,4.184l11.175,11.174c0.559,0.559,1.301,0.867,2.091,0.867s1.533-0.308,2.092-0.867l19.772-19.772
				c0.559-0.559,0.866-1.301,0.866-2.092C270.42,119.822,270.113,119.079,269.554,118.52z"/>
		</g>
		<g>
			<path fill="#0F7A94" d="M234.424,86.911c-1.153,1.154-1.153,3.03,0,4.184l11.175,11.174c0.559,0.559,1.301,0.866,2.091,0.866
				s1.533-0.308,2.092-0.866l19.772-19.772c0.559-0.559,0.866-1.302,0.866-2.092c0-0.791-0.308-1.533-0.866-2.092l-2.504-2.503
				c-0.559-0.559-1.301-0.867-2.091-0.867c-0.791,0-1.533,0.308-2.093,0.867L247.69,90.987l-6.579-6.58
				c-0.559-0.559-1.302-0.866-2.092-0.866s-1.532,0.308-2.091,0.866L234.424,86.911z"/>
		</g>
		<g>
			<path fill="#0F7A94" d="M356.702,182.578c-26.965,0-48.824,21.859-48.824,48.823s21.859,48.83,48.824,48.83
				c26.971,0,48.828-21.866,48.828-48.83S383.673,182.578,356.702,182.578z M383.2,218.86l-32.254,38.402
				c-1.016,1.211-2.518,1.914-4.092,1.933h-0.059c-1.557,0-3.041-0.677-4.078-1.85l-17.424-19.95
				c-1.969-2.253-1.732-5.675,0.514-7.64c2.252-1.972,5.674-1.736,7.639,0.511l13.273,15.195l28.189-33.563
				c1.92-2.291,5.336-2.584,7.627-0.664C384.829,213.155,385.12,216.569,383.2,218.86z"/>
		</g>
		<polygon fill-rule="evenodd" clip-rule="evenodd" fill="#0F7A94" points="283.479,77.835 286.44,84.137 293.335,85.005 
			288.259,89.762 289.569,96.593 283.479,93.231 277.389,96.593 278.701,89.762 273.625,85.005 280.519,84.137 		"/>
		<polygon fill-rule="evenodd" clip-rule="evenodd" fill="#0F7A94" points="306.294,77.835 309.257,84.137 316.149,85.005 
			311.073,89.762 312.386,96.593 306.294,93.231 300.204,96.593 301.517,89.762 296.44,85.005 303.333,84.137 		"/>
		<polygon fill-rule="evenodd" clip-rule="evenodd" fill="#0F7A94" points="329.11,77.835 332.071,84.137 338.966,85.005 
			333.89,89.762 335.2,96.593 329.11,93.231 323.019,96.593 324.331,89.762 319.255,85.005 326.151,84.137 		"/>
		<polygon fill-rule="evenodd" clip-rule="evenodd" fill="#0F7A94" points="351.925,77.835 354.888,84.137 361.78,85.005 
			356.704,89.762 358.017,96.593 351.925,93.231 345.833,96.593 347.147,89.762 342.071,85.005 348.966,84.137 		"/>
		<polygon fill-rule="evenodd" clip-rule="evenodd" fill="#0F7A94" points="283.479,118.395 286.44,124.697 293.335,125.565 
			288.259,130.322 289.569,137.153 283.479,133.792 277.389,137.153 278.701,130.322 273.625,125.565 280.519,124.697 		"/>
		<polygon fill-rule="evenodd" clip-rule="evenodd" fill="#0F7A94" points="306.294,118.395 309.257,124.697 316.149,125.565 
			311.073,130.322 312.386,137.153 306.294,133.792 300.204,137.153 301.517,130.322 296.44,125.565 303.333,124.697 		"/>
		<polygon fill-rule="evenodd" clip-rule="evenodd" fill="#0F7A94" points="329.11,118.395 332.071,124.697 338.966,125.565 
			333.89,130.322 335.2,137.153 329.11,133.792 323.019,137.153 324.331,130.322 319.255,125.565 326.151,124.697 		"/>
		<polygon fill-rule="evenodd" clip-rule="evenodd" fill="#0F7A94" points="283.479,158.955 286.44,165.258 293.335,166.125 
			288.259,170.883 289.569,177.714 283.479,174.351 277.389,177.714 278.701,170.883 273.625,166.125 280.519,165.258 		"/>
		<polygon fill-rule="evenodd" clip-rule="evenodd" fill="#0F7A94" points="306.294,158.955 309.257,165.258 316.149,166.125 
			311.073,170.883 312.386,177.714 306.294,174.351 300.204,177.714 301.517,170.883 296.44,166.125 303.333,165.258 		"/>
		<polygon fill-rule="evenodd" clip-rule="evenodd" fill="#0F7A94" points="283.479,199.516 286.44,205.817 293.335,206.685 
			288.259,211.443 289.569,218.274 283.479,214.912 277.389,218.274 278.701,211.443 273.625,206.685 280.519,205.817 		"/>
	</g>
</g>
<g id="scales" display="none">
	<g display="inline">
		<g>
			<g>
				<path fill="#0F7A94" d="M283.382,197.104l5.528-26.344l-108.191,27.008c-0.016-0.012-0.033-0.023-0.049-0.036v-7.761
					c41.805-1.882,74.63-20.355,74.63-39.807H92.03c0,19.451,32.824,37.925,74.631,39.807v7.761
					c-2.688,2.091-4.423,5.347-4.423,9.016c0,6.313,5.116,11.428,11.428,11.428c5.574,0,10.21-3.992,11.218-9.273L283.382,197.104z"
					/>
				<path fill="#0F7A94" d="M423.658,127.601v5.978c-1.485,1.157-2.677,2.665-3.447,4.407l-106.384,26.555l5.287,25.198
					l102.794-39.804c2.098,2.499,5.239,4.088,8.754,4.088c6.313,0,11.429-5.116,11.429-11.428c0-3.668-1.735-6.925-4.424-9.016
					v-5.978c41.809-1.882,74.632-20.355,74.632-39.807H349.028C349.028,107.246,381.853,125.719,423.658,127.601z"/>
				<path fill="#0F7A94" d="M265.808,141.307c0-2.571-2.084-4.656-4.656-4.656H86.178c-2.571,0-4.655,2.084-4.655,4.656
					c0,2.572,2.084,4.655,4.655,4.655h174.974C263.724,145.962,265.808,143.879,265.808,141.307z"/>
				<path fill="#0F7A94" d="M518.149,74.282H343.177c-2.571,0-4.655,2.083-4.655,4.655c0,2.571,2.084,4.655,4.655,4.655h174.973
					c2.572,0,4.657-2.084,4.657-4.655C522.807,76.365,520.722,74.282,518.149,74.282z"/>
			</g>
			<path fill="#0F7A94" d="M333.894,218.658c0,0-6.411-0.277-10.975-3.648c-3.23-2.386-4.407-7.687-4.407-7.687l-10.589-50.452
				c-0.532-2.896-3.061-4.914-5.9-4.911c-2.842-0.003-5.369,2.015-5.902,4.911l-10.588,50.452c0,0-1.176,5.3-4.407,7.687
				c-4.564,3.371-10.973,3.648-10.973,3.648c-5.451,0.488-9.807,4.39-9.807,9.807v2.902c0,1.719,1.028,2.351,2.407,2.351h39.27
				h39.27c1.379,0,2.408-0.632,2.408-2.351v-2.902C343.7,223.048,339.344,219.146,333.894,218.658z M302.022,183.721
				c-2.501,0-4.525-2.026-4.525-4.524c0-2.5,2.024-4.526,4.525-4.526c2.498,0,4.524,2.026,4.524,4.526
				C306.547,181.695,304.521,183.721,302.022,183.721z"/>
		</g>
	</g>
</g>
<g id="Layer_6">
</g>
<g id="line">
	<path fill="none" d="M360.549,251.234c-0.638,0.133-1.298,0.182-1.92,0c0.176,0.466,0.301,0.957,0.368,1.45
		C359.357,252.047,359.913,251.564,360.549,251.234z"/>
	<path fill="none" d="M358.551,242.945c-2.947-2.515-6.521-4.167-10.065-5.754c-2.947-1.322-6.11-2.659-9.297-2.132
		c-0.482,0.078-0.957,0.197-1.421,0.324c0.942-0.094,1.903-0.175,2.882-0.14c2.886,0.093,5.609,1.172,7.896,2.217
		c2.373,1.086,4.685,2.341,6.893,3.726c1.075,0.673,2.006,1.62,2.845,2.898c0.119,0.185,0.236,0.374,0.364,0.561
		c0.42,0.685,0.826,1.328,1.367,1.841c0.688,0.646,1.527,1.117,2.408,1.615c0.868,0.495,1.771,0.998,2.527,1.691
		c0.07,0.058,0.133,0.118,0.191,0.182c0.154,0.146,0.307,0.292,0.467,0.39c0.094,0.067,0.209,0.116,0.323,0.17
		C363.352,248.164,361.237,245.226,358.551,242.945z"/>
	<path fill="none" d="M369.875,256.14c-0.186-0.462-0.41-0.912-0.693-1.343c-0.918-1.403-2.306-2.588-4.044-3.428
		c-0.825-0.403-1.467-0.587-2.061-0.594c-0.03,0-0.06,0.004-0.097,0.004c1.486,0.147,2.841,0.957,3.86,2.031
		C367.878,253.89,368.697,255.286,369.875,256.14z"/>
	<path fill="none" d="M371.591,254.124l0.488,0.134c0.65,0.189,1.265,0.366,1.921,0.448c0.565,0.071,1.155,0.087,1.75,0.078
		c-2.474-0.101-4.931-0.799-7.036-2.1c-0.01-0.008-0.021-0.016-0.042-0.023c0.413,0.395,0.771,0.824,1.081,1.271
		c0.135,0.008,0.264,0.015,0.398,0.02C370.612,253.966,371.103,253.981,371.591,254.124z"/>
	<path fill="#0F7A94" d="M242.388,239.735c0.924,0.078,1.841-0.163,2.816-0.42c0.399-0.104,0.813-0.213,1.231-0.298
		c1.928-0.391,3.547-0.008,4.43,1.06c0.12,0.134,0.15,0.32,0.081,0.487l-2.684,6.803c-0.364,0.92-0.74,1.878-1.329,2.733
		c-0.145,0.215-0.309,0.428-0.471,0.637c-0.27,0.352-0.52,0.677-0.706,1.04c-0.542,1.058-0.482,2.29-0.417,3.599
		c0.027,0.596,0.064,1.214,0.03,1.817c-0.099,2.062-0.947,4.078-2.34,5.592c0.45,0.523,1.31,0.739,2.193,0.895l3.979,0.698
		c1.919,0.331,3.627,0.554,5.082-0.128c0.37-0.175,0.708-0.401,1.075-0.647c0.167-0.108,0.328-0.214,0.493-0.317
		c1.822-1.145,3.985-1.729,6.145-1.671c1.33-0.913,2.944-1.433,4.562-1.466c0.518-0.018,1.197,0.029,1.74,0.437
		c1.094,0.824,0.864,2.467,0.188,3.646c-0.31,0.537-0.425,1.011-0.271,1.106c0.074,0.048,0.247,0.044,0.31,0.042
		c1.471-0.036,2.812-0.955,4.105-1.84c0.251-0.17,0.497-0.34,0.747-0.507c1.159-0.762,3.242-1.843,5.141-1.256l0.004-0.033
		c2.406,0.345,4.952-0.38,6.819-1.942c0.264-0.228,0.518-0.463,0.788-0.717c0.259-0.246,0.518-0.484,0.786-0.715
		c0.526-0.452,1.102-0.844,1.664-1.224c1.076-0.738,2.291-1.565,3.694-1.87c0.889-0.185,1.774-0.147,2.639-0.117
		c0.287,0.01,0.563,0.021,0.849,0.025c0.205,0.011,0.393,0,0.512-0.058c0.168-0.078,0.324-0.278,0.457-0.459l1.164-1.564
		c0.247-0.326,0.49-0.654,0.595-1.007c0.053-0.188,0.072-0.402,0.102-0.622c0.018-0.184,0.034-0.363,0.066-0.542
		c0.17-0.841,0.681-1.563,1.362-1.928c0.804-0.426,1.81-0.325,2.43,0.254c0.074,0.061,0.148,0.134,0.211,0.21
		c0.09,0.091,0.256,0.26,0.313,0.272c0.03-0.012,0.142-0.12,0.195-0.187l0.104-0.108c0.591-0.603,1.399-0.796,2.12-0.966
		c0.159-0.036,0.327-0.08,0.491-0.118c0.688-0.187,1.916-0.661,2.518-1.762c0.102-0.216,0.202-0.446,0.284-0.694
		c0.085-0.213,0.171-0.441,0.278-0.662c0.526-1.091,1.53-1.931,2.695-2.254c0.782-0.21,1.446-0.099,1.885,0.317
		c0.222,0.208,0.353,0.464,0.452,0.686c1.156,2.356,2.504,3.583,3.996,3.664c0.142,0.007,0.256,0.072,0.354,0.177
		c0.078,0.103,0.126,0.241,0.098,0.372c-0.146,1.199-1.299,1.825-2.279,2.239c-0.787,0.326-1.65,0.739-1.793,1.43
		c-0.158,0.73,0.55,1.468,1.173,1.962c0.141,0.114,0.293,0.219,0.436,0.325c0.667,0.492,1.341,0.992,1.631,1.899
		c0.437,1.435-0.395,2.818-1.22,4.002c-0.7,1.003-1.357,2.156-0.979,3.143c0.066,0.192,0.193,0.384,0.317,0.585
		c0.043,0.079,0.091,0.157,0.135,0.236c0.916,1.584,1.107,3.568,0.511,5.3c-0.073,0.2-0.155,0.404-0.23,0.608
		c-0.316,0.797-0.625,1.547-0.313,2.146c0.141,0.287,0.417,0.523,0.718,0.768c0.097,0.069,0.171,0.142,0.246,0.208
		c0.757,0.657,1.354,1.481,1.73,2.396l0.065,0.152c0.13,0.328,0.263,0.634,0.463,0.766c0.128,0.084,0.336,0.109,0.53,0.125
		c2.037,0.171,3.923-0.697,5.933-1.614c1.708-0.777,3.477-1.587,5.383-1.728c1.252-0.098,2.487,0.104,3.668,0.297
		c0.69,0.107,1.406,0.22,2.104,0.278c1.303,0.099,2.218-0.15,2.712-0.736c0.2-0.241,0.345-0.559,0.479-0.874l5.348-11.881
		c0.491-1.084,0.998-2.202,1.236-3.361c0.11-0.519,0.17-1.037,0.225-1.591c0.085-0.751,0.17-1.52,0.396-2.27
		c0.692-2.401,2.75-4.363,5.08-4.868c0.059-0.016,0.109-0.019,0.158-0.007l2.649,0.314c0.685,0.083,1.539,0.187,2.254,0.636
		c-0.06-0.068-0.132-0.136-0.2-0.196c-0.859-0.771-2.046-1.507-2.008-2.655c0.02-0.635,0.443-1.254,0.271-1.868
		c-0.179-0.659-0.939-0.944-1.594-1.122c-1.908-0.504-3.82-0.924-5.768-1.247c0.125-0.669,0.105-1.361-0.055-2.018
		c-2.303,0.495-4.584,0.989-6.877,1.49c-1.609,0.353-3.298,0.704-4.938,0.398c-1.617-0.301-3.215-1.441-3.541-3.067
		c-0.067-0.392-0.073-0.803-0.27-1.148c-0.514-0.899-1.785-0.739-2.644-0.948c-1.026-0.254-1.981-0.725-2.857-1.302
		c-1.455-0.954-2.993-2.052-4.723-1.984c-0.604,0.024-1.213,0.195-1.81,0.297c-1.025,0.17-2.06,0.143-3.098,0.111
		c-0.166-0.004-0.339-0.011-0.474-0.095c-0.228-0.132-0.293-0.421-0.392-0.675c-0.37-1.102-1.399-1.95-2.565-2.097
		c0.408-0.209,0.377-0.839,0.071-1.161c-0.315-0.316-0.808-0.392-1.253-0.382c-0.456,0.012-0.898,0.091-1.334,0
		c-0.704-0.137-1.285-0.734-1.423-1.433c0.393-0.373,1.004-0.334,1.537-0.236c0.531,0.097,1.124,0.211,1.593-0.071
		c0.454-0.282,0.511-1.148-0.019-1.258c-0.969-0.042-2.104-0.021-2.714,0.733c-0.2,0.238-0.345,0.556-0.609,0.709
		c-0.468,0.271-1.043-0.021-1.476-0.333c-0.654-0.479-1.265-1.007-1.821-1.592c-0.374-0.397-0.728-1.065-0.319-1.429
		c0.919,0.599,2.14,1.207,3.018,0.559c0.45-0.326,0.878-0.954,1.367-0.701c0.36,0.184,0.356,0.705,0.613,1.002
		c0.272,0.304,0.764,0.306,1.119,0.113c0.364-0.196,0.621-0.538,0.856-0.867c1.046-1.456,2.08-2.909,3.126-4.366
		c0.697-0.961,1.34-1.626,2.164-2.481c0.513-0.534,0.676-1.381,1.288-1.779c0.373-0.24,0.823-0.269,1.232-0.458
		c0.949-0.448,1.243-1.616,1.708-2.556c0.625-1.322,1.713-2.363,2.817-3.316c0.319-0.275,0.68-0.613,0.659-1.036
		c-0.021-0.475-0.531-0.879-0.396-1.335c0.053-0.191,0.223-0.333,0.386-0.454c0.851-0.663,1.79-1.211,2.779-1.627
		c0.754-0.317,1.538-0.562,2.258-0.952c0.411-0.227,0.792-0.494,1.136-0.799c0.149-0.144,0.313-0.311,0.33-0.525
		c0.042-0.395-0.426-0.643-0.817-0.714c-0.347-0.061-0.699-0.074-1.058-0.039c-0.454,0.048-1.002,0.153-1.309-0.197
		c-0.076-0.097-0.147-0.224-0.233-0.307c-0.192-0.171-0.484-0.149-0.736-0.153c-0.619-0.007-1.231-0.238-1.708-0.632
		c-0.17-0.15-0.376-0.337-0.597-0.274c-0.227,0.06-0.318,0.354-0.261,0.583c0.047,0.232,0.197,0.43,0.269,0.651
		c0.234,0.657-0.083,1.37-0.462,1.96c-0.368,0.583-0.819,1.192-0.816,1.885c0.003,0.521,0.264,1.005,0.317,1.522
		c0.033,0.329-0.006,0.664-0.126,0.979c-0.059,0.14-0.142,0.289-0.278,0.349c-0.118,0.061-0.263,0.05-0.38,0.036
		c-0.793-0.095-1.568-0.253-2.325-0.471c-0.522-0.151-1.053-0.337-1.456-0.681c-0.405-0.333-0.686-0.8-0.911-1.279
		c-0.326-0.677-0.573-1.397-0.742-2.135c-0.126-0.567-0.137-1.299,0.374-1.59c0.174-0.097,0.385-0.127,0.59-0.152
		c1.161-0.15,2.739-0.994,2.293-2.42c-0.328-1.038-1.786-1.733-1.468-2.773c0.191-0.616,0.92-0.858,1.47-1.199
		c1.475-0.903,1.936-2.9,1.591-4.599c-0.343-1.689-1.331-3.176-2.206-4.666c-0.521-0.899-1.028-1.833-1.261-2.852
		c-0.151-0.646-0.183-1.312-0.286-1.97c-0.359-2.277-1.299-4.466-3.065-5.949c0.44-1.941-0.651-3.832-1.406-5.661
		c-1.061-2.544-1.497-5.33-1.263-8.07c0.059-0.787,0.206-1.633,0.788-2.168c1.021-0.941,2.665-0.407,4.005-0.771
		c0.16,0.578,0.37,1.19,0.854,1.552c0.477,0.362,1.307,0.301,1.543-0.248c0.092-0.211,0.083-0.454,0.149-0.669
		c0.278-1.057,1.805-1.078,2.783-0.606c1.53,0.737,2.995,2.146,4.657,1.767c-0.669,1.378,0.789,3.244,2.287,2.918
		c0.754-0.162,1.369-0.736,2.126-0.872c0.651-0.121,1.334,0.091,1.953-0.088c1.556-0.445,1.881-2.89,3.465-3.201
		c0.553-0.118,1.132,0.088,1.693,0.023c0.773-0.087,1.408-0.638,1.987-1.167c1.34-1.23,2.698-2.466,4.039-3.698
		c0.342-0.315,0.696-0.634,0.938-1.028c0.321-0.516,0.451-1.128,0.566-1.72c0.364-1.793,0.736-3.587,1.099-5.38
		c1.264-0.219,2.881-0.286,3.491,0.835c0.135,0.231,0.195,0.491,0.36,0.691c0.34,0.441,0.982,0.488,1.536,0.503
		c0.547,0.025,1.158,0.009,1.553-0.367c1.057-0.984-0.552-3.077,0.467-4.117c0.2-0.201,0.474-0.326,0.61-0.577
		c0.106-0.18,0.113-0.388,0.101-0.589c-0.141-1.709-1.693-2.965-2.241-4.583c-0.571-1.706,0.015-3.575-0.183-5.365
		c-0.023-0.251-0.069-0.518-0.239-0.708c-0.26-0.307-0.752-0.34-1.013-0.651c-0.475-0.553,0.061-1.555-0.46-2.055
		c-0.238-0.238-0.606-0.25-0.948-0.25c-3.251,0.002-6.429-0.04-9.67-0.269c-0.937-0.06-1.583,0.221-2.382,0.689
		c-0.352,0.205-0.711,0.412-1.066,0.62c-0.417,0.246-0.83,0.496-1.182,0.833c-0.662,0.646-1.034,1.608-1.843,2.043
		c-0.59,0.309-1.434,0.217-1.819-0.327c-0.186-0.257-0.263-0.578-0.413-0.852c-0.175-0.293-0.449-0.526-0.704-0.747
		c-0.29-0.243-0.565-0.479-0.853-0.722c-0.118-0.09-0.233-0.188-0.383-0.182c-0.101,0.005-0.193,0.063-0.296,0.074
		c-0.242,0.017-0.407-0.251-0.481-0.48c-0.204-0.572-0.301-1.171-0.292-1.771c0.01-0.5,0.098-1.022-0.037-1.503
		c-0.179-0.622-0.699-1.097-1.276-1.373c-0.639-0.31-1.242-0.545-1.705-1.106c-0.527-0.635-0.564-1.539-0.547-2.362
		c0.043-2.316,0.312-4.628,0.814-6.884c0.49-2.198,1.194-4.419,0.893-6.651c-0.181-1.338-0.713-2.604-1.242-3.854
		c-2.428-5.73-4.883-11.513-8.49-16.591c-0.565-0.782-1.025-2.129-0.127-2.495c-0.647-1.698-2.538-2.569-4.308-2.924
		c-0.88,1.817-3.23,2.259-5.242,2.393c-2.014,0.14-4.32,0.358-5.471,2.02c-0.613,0.911-0.74,2.084-1.291,3.034
		c-0.611,1.057-1.68,1.74-2.72,2.37c-1.891,1.152-3.802,2.25-5.756,3.293c1.681,0.332,3.501,0.519,4.813,1.617
		c1.311,1.099,1.634,3.544,0.127,4.354c-1.565,0.833-3.29-0.671-4.41-2.036c-0.796-0.975-1.594-1.942-2.384-2.915
		c-0.901-1.096-1.956-1.03-3.146-1.592c-2.581-1.229-5.448-3.06-7.207-5.364c-0.86-1.12-1.449-2.412-2.035-3.695
		c-0.283-0.614-0.572-1.245-0.626-1.916c-0.103-1.187,0.502-2.301,0.951-3.406c0.444-1.106,0.712-2.459,0.013-3.42
		c-0.239-0.336-0.631-0.607-1.042-0.563c-0.413,0.051-0.75,0.535-0.545,0.895c0.08,0.142,0.219,0.237,0.306,0.366
		c0.197,0.288,0.115,0.701-0.1,0.974c-0.213,0.273-0.538,0.442-0.842,0.602c-0.147,0.076-0.304,0.157-0.469,0.145
		c-0.257-0.021-0.434-0.256-0.582-0.465c-0.382-0.545-0.76-1.094-1.137-1.639c-0.222-0.334-0.469-0.67-0.83-0.852
		c-0.341-0.165-0.732-0.161-1.109-0.149c-1.879,0.069-3.898,0.354-5.246,1.654c-2.437,2.35-1.804,6.6-1.889,9.692
		c-0.089,3.164-0.002,6.465-0.6,9.599c-0.729,3.804-5.671,22.522-6.566,24.875c-0.894,2.35-1.458,3.08-2.433,6.482
		c-0.97,3.405-3.24,24.677-6.036,46.924s-7.049,25.404-7.049,25.404s0,0-0.728-0.365c-0.728-0.365-1.313,0.758-1.313,0.758
		c1.077,11.752-3.114,23.061-8.379,33.807l5.582,2.986C240.208,239.066,241.287,239.638,242.388,239.735z"/>
	<path fill="#0F7A94" d="M266.628,66.933c-0.033,0.288-0.162,0.56-0.184,0.849c-0.021,0.378,0.149,0.739,0.321,1.082
		c0.479,0.985,0.962,1.97,1.45,2.95c2.107-0.637,4.197-1.319,6.271-2.053c0.432-0.152,0.931-0.394,0.962-0.848
		c0.024-0.403-0.34-0.704-0.667-0.937c-0.744-0.518-1.487-1.043-2.23-1.57c0.785-0.442,1.791-0.144,2.541,0.351
		c0.75,0.501,1.374,1.185,2.169,1.607c0.462,0.243,1.099,0.37,1.471-0.005c0.15-0.152,0.225-0.357,0.299-0.553
		c0.444-1.246,0.887-2.49,1.331-3.729c0.444-1.233,1.027-2.611,2.264-3.035c1.216-0.424,2.668,0.265,3.818-0.329
		c0.542-0.279,0.914-0.803,1.26-1.301c0.8-1.146,1.603-2.293,2.413-3.442c0.341-0.496,0.698-1.014,0.829-1.605
		c0.146-0.669-0.014-1.383,0.157-2.046c0.453-1.759,2.859-2.239,3.733-3.829c0.663-1.238,0.245-2.746-0.05-4.123
		c-0.454-2.251-0.492-4.586-0.077-6.849c0.043-0.259,0.097-0.528,0.26-0.739c0.188-0.252,0.493-0.384,0.735-0.577
		c0.688-0.54,0.88-1.529,0.699-2.376c-0.184-0.856-0.658-1.605-1.138-2.336c-0.464-0.703-0.911-1.409-1.374-2.118
		c-0.183-0.279-0.373-0.564-0.651-0.749c-0.218-0.141-0.467-0.205-0.689-0.34c-0.716-0.432-0.864-1.394-1-2.226
		c-0.277-1.823-1.839-5.833-4.349-4.18c-1,0.662-1.611,1.98-2.263,2.938c-0.89,1.313-2.005,2.414-3.023,3.619
		c-1.137,1.346-2.057,2.86-2.968,4.375c-2.942,4.87-5.883,9.739-8.833,14.61c-0.869,1.445-1.758,2.922-2.114,4.57
		c-0.252,1.193-0.222,2.421-0.367,3.637c-0.401,3.4-2.154,6.798-1.22,10.094C266.526,66.117,266.679,66.523,266.628,66.933z"/>
	<path fill="#0F7A94" d="M258.78,77.947c0.156,0.324,0.397,0.649,0.752,0.725c0.148,0.036,0.296,0.015,0.448-0.006
		c0.43-0.062,0.852-0.156,1.27-0.278c0.196-0.06,0.393-0.125,0.56-0.25c0.326-0.237,0.483-0.645,0.681-1.002
		c0.552-0.969,1.572-1.662,2.68-1.807c0.597-0.081,1.193-0.431,0.914-1.14c-0.154-0.405-0.571-0.406-0.946-0.449
		c-0.543-0.054-1.084-0.143-1.462-0.572c-0.374-0.416-0.525-0.994-0.921-1.397c-0.593-0.613-1.562-0.641-2.413-0.551
		c-0.139,0.013-0.279,0.029-0.398,0.108c-0.068,0.049-0.125,0.115-0.181,0.181c-0.361,0.445-0.721,0.887-1.081,1.325
		c-0.131,0.156-0.257,0.315-0.343,0.497c-0.155,0.324-0.153,0.705-0.147,1.069C258.208,75.609,258.238,76.862,258.78,77.947z"/>
	<path fill="#0F7A94" d="M344.848,117.029c-0.099-0.138-0.218-0.283-0.388-0.292c-0.15-0.013-0.286,0.116-0.358,0.254
		c-0.069,0.144-0.085,0.305-0.121,0.455c-0.12,0.432-0.438,0.786-0.606,1.194c-0.048,0.127-0.091,0.259-0.075,0.397
		c0.034,0.222,0.211,0.396,0.395,0.53c0.708,0.534,1.554,0.865,2.247,1.404c0.255,0.187,0.534,0.415,0.835,0.331
		c0.532-0.147,0.607-1.031,0.324-1.409c-0.467-0.593-0.972-1.162-1.427-1.758C345.388,117.77,345.121,117.402,344.848,117.029z"/>
	<path fill="#FFFFFF" d="M231.592,234.455l-0.456,0.862l2.113,1.127c0.147-0.29,0.288-0.578,0.434-0.875L231.592,234.455z"/>
	<path fill="#FFFFFF" d="M358.629,251.234c0.622,0.182,1.282,0.133,1.92,0c0.71-0.36,1.54-0.522,2.329-0.468
		c0.035,0.002,0.068,0.01,0.103,0.013c0.037,0,0.066-0.004,0.097-0.004c0.594,0.007,1.235,0.191,2.061,0.594
		c1.738,0.84,3.126,2.025,4.044,3.428c0.283,0.432,0.508,0.881,0.693,1.343c0.292,0.208,0.587,0.392,0.926,0.526
		c0.104,0.036,0.192,0.057,0.3,0.089c-0.167-0.623-0.396-1.239-0.707-1.819c-0.103-0.006-0.188-0.008-0.285-0.011
		c-0.211-0.009-0.423-0.02-0.635-0.037l0.072-0.967c0.082,0.006,0.144,0.008,0.207,0.011c-0.311-0.447-0.668-0.876-1.081-1.271
		c-0.659-0.414-1.272-0.876-1.881-1.367l-0.701,0.495c-0.102-0.142-0.309-0.242-0.557-0.359c-0.144-0.073-0.307-0.152-0.452-0.244
		c-0.23-0.156-0.423-0.336-0.607-0.514c-0.063-0.05-0.116-0.107-0.176-0.164c-0.283-0.249-0.588-0.476-0.896-0.684
		c-0.111-0.009-0.206-0.015-0.312-0.018c-0.688,0.015-1.344,0.151-1.988,0.308c-0.998,0.246-1.872,0.454-2.591,0.032
		c-0.204-0.12-0.387-0.296-0.587-0.484c-0.195-0.179-0.395-0.366-0.641-0.528c-0.024-0.016-0.05-0.029-0.075-0.045
		C357.824,249.697,358.307,250.432,358.629,251.234z"/>
	<path fill="#FFFFFF" d="M366.888,251.232l-0.097,0.062c0.608,0.491,1.222,0.953,1.881,1.367
		C368.15,252.136,367.538,251.658,366.888,251.232z"/>
	<path fill="#FFFFFF" d="M352.306,248.138c-0.049-0.012-0.1-0.009-0.158,0.007c-2.33,0.504-4.388,2.466-5.08,4.868
		c-0.227,0.75-0.312,1.519-0.396,2.27c-0.055,0.554-0.114,1.072-0.225,1.591c-0.238,1.159-0.745,2.277-1.236,3.361l-5.348,11.881
		c-0.135,0.315-0.279,0.633-0.479,0.874c-0.494,0.585-1.409,0.834-2.712,0.736c-0.697-0.058-1.413-0.17-2.104-0.278
		c-1.181-0.192-2.416-0.395-3.668-0.297c-1.906,0.141-3.675,0.951-5.383,1.728c-2.01,0.917-3.896,1.785-5.933,1.614
		c-0.194-0.016-0.402-0.041-0.53-0.125c-0.2-0.132-0.333-0.438-0.463-0.766l-0.065-0.152c-0.376-0.916-0.974-1.74-1.73-2.396
		c-0.075-0.066-0.149-0.139-0.246-0.208c-0.301-0.244-0.577-0.481-0.718-0.768c-0.313-0.6-0.004-1.35,0.313-2.146
		c0.075-0.204,0.157-0.409,0.23-0.608c0.597-1.732,0.405-3.716-0.511-5.3c-0.044-0.08-0.092-0.158-0.135-0.236
		c-0.124-0.201-0.251-0.393-0.317-0.585c-0.379-0.987,0.278-2.14,0.979-3.143c0.825-1.184,1.656-2.567,1.22-4.002
		c-0.29-0.908-0.964-1.407-1.631-1.899c-0.143-0.106-0.295-0.211-0.436-0.325c-0.623-0.494-1.331-1.232-1.173-1.962
		c0.143-0.69,1.006-1.104,1.793-1.43c0.98-0.414,2.133-1.04,2.279-2.239c0.028-0.131-0.02-0.27-0.098-0.372
		c-0.098-0.104-0.212-0.169-0.354-0.177c-1.492-0.081-2.84-1.308-3.996-3.664c-0.1-0.222-0.23-0.478-0.452-0.686
		c-0.438-0.416-1.103-0.527-1.885-0.317c-1.165,0.323-2.169,1.163-2.695,2.254c-0.107,0.221-0.193,0.449-0.278,0.662
		c-0.082,0.249-0.183,0.479-0.284,0.694c-0.602,1.101-1.829,1.575-2.518,1.762c-0.164,0.039-0.332,0.082-0.491,0.118
		c-0.721,0.17-1.529,0.364-2.12,0.966l-0.104,0.108c-0.054,0.066-0.165,0.175-0.195,0.187c-0.058-0.012-0.224-0.181-0.313-0.272
		c-0.063-0.077-0.137-0.149-0.211-0.21c-0.62-0.579-1.626-0.68-2.43-0.254c-0.682,0.365-1.192,1.086-1.362,1.928
		c-0.032,0.178-0.049,0.358-0.066,0.542c-0.029,0.22-0.049,0.435-0.102,0.622c-0.104,0.353-0.348,0.681-0.595,1.007l-1.164,1.564
		c-0.133,0.181-0.289,0.381-0.457,0.459c-0.119,0.058-0.307,0.068-0.512,0.058c-0.285-0.003-0.562-0.015-0.849-0.025
		c-0.864-0.031-1.75-0.068-2.639,0.117c-1.403,0.305-2.618,1.132-3.694,1.87c-0.563,0.38-1.138,0.771-1.664,1.224
		c-0.268,0.231-0.526,0.47-0.786,0.715c-0.27,0.254-0.524,0.49-0.788,0.717c-1.868,1.562-4.414,2.288-6.819,1.942l-0.004,0.033
		c0.25,0.078,0.489,0.182,0.728,0.322c0.143,0.08,0.228,0.218,0.241,0.377l0.032,0.316c2.319,0.05,4.666-0.758,6.442-2.246
		c0.294-0.247,0.574-0.509,0.834-0.756c0.246-0.232,0.492-0.459,0.748-0.68c0.487-0.415,1.047-0.794,1.589-1.163
		c1.041-0.718,2.122-1.458,3.342-1.716c0.768-0.162,1.556-0.135,2.402-0.097c0.285,0.01,0.58,0.02,0.874,0.022
		c0.291,0.005,0.624-0.005,0.941-0.151c0.393-0.18,0.637-0.512,0.813-0.761l1.175-1.566c0.269-0.369,0.584-0.794,0.743-1.307
		c0.074-0.273,0.099-0.541,0.123-0.8c0.016-0.155,0.047-0.304,0.074-0.455c0.101-0.558,0.421-1.024,0.85-1.256
		c0.44-0.228,1.004-0.182,1.325,0.116c0.059,0.046,0.105,0.108,0.155,0.16c0.258,0.26,0.64,0.658,1.186,0.559
		c0.354-0.059,0.579-0.307,0.748-0.484l0.075-0.089c0.403-0.396,1.01-0.543,1.656-0.695c0.167-0.043,0.345-0.081,0.517-0.132
		c1.452-0.39,2.554-1.188,3.113-2.241c0.151-0.269,0.255-0.541,0.353-0.806c0.079-0.199,0.145-0.393,0.237-0.584
		c0.407-0.843,1.184-1.494,2.088-1.734c0.419-0.12,0.773-0.084,0.953,0.081c0.098,0.086,0.166,0.243,0.253,0.418
		c1.169,2.376,2.564,3.754,4.168,4.112c-0.241,0.356-0.735,0.676-1.514,1.003c-0.736,0.305-2.104,0.874-2.364,2.127
		c-0.147,0.673,0.008,1.725,1.516,2.924c0.159,0.12,0.311,0.24,0.471,0.351c0.578,0.431,1.083,0.803,1.275,1.404
		c0.306,1.012-0.361,2.112-1.084,3.157c-0.851,1.211-1.632,2.632-1.098,4.042c0.104,0.279,0.249,0.517,0.396,0.751
		c0.039,0.073,0.089,0.139,0.127,0.212c0.779,1.346,0.945,3.021,0.43,4.489c-0.059,0.189-0.148,0.381-0.218,0.576
		c-0.357,0.914-0.769,1.952-0.28,2.941c0.244,0.467,0.639,0.79,0.982,1.076c0.07,0.065,0.161,0.134,0.23,0.195
		c0.624,0.558,1.132,1.255,1.464,2.037l0.055,0.144c0.169,0.415,0.37,0.927,0.854,1.23c0.317,0.188,0.649,0.237,0.949,0.266
		c2.296,0.192,4.401-0.771,6.431-1.699c1.629-0.743,3.316-1.512,5.058-1.647c1.135-0.087,2.252,0.096,3.448,0.285
		c0.7,0.114,1.434,0.236,2.168,0.289c1.632,0.127,2.827-0.235,3.533-1.075c0.281-0.346,0.462-0.748,0.619-1.097l5.356-11.889
		c0.511-1.126,1.037-2.295,1.296-3.559c0.117-0.561,0.181-1.13,0.25-1.683c0.07-0.736,0.15-1.433,0.349-2.104
		c0.596-2.01,2.342-3.718,4.278-4.174l2.563,0.308c0.636,0.074,1.369,0.162,1.903,0.524c0.177,0.121,0.343,0.269,0.51,0.43
		c0.229,0.215,0.475,0.439,0.764,0.616c0.198,0.113,0.411,0.189,0.613,0.246c-0.322-0.802-0.805-1.537-1.42-2.146
		c-0.715-0.449-1.569-0.553-2.254-0.636L352.306,248.138z"/>
	<path fill="#FFFFFF" d="M362.98,250.779c-0.034-0.003-0.067-0.011-0.103-0.013c-0.789-0.054-1.619,0.108-2.329,0.468
		c0.271-0.049,0.525-0.114,0.779-0.177C361.918,250.918,362.474,250.799,362.98,250.779z"/>
	<path fill="#FFFFFF" d="M279.245,262.097c-0.239-0.141-0.478-0.244-0.728-0.322l-0.131,0.933c0.376,0.049,0.755,0.074,1.132,0.083
		l-0.032-0.316C279.473,262.315,279.388,262.177,279.245,262.097z"/>
	<path fill="#FFFFFF" d="M366.356,250.913c-0.148-0.129-0.298-0.25-0.425-0.378c-0.114-0.054-0.229-0.103-0.323-0.17
		c-0.16-0.099-0.313-0.245-0.467-0.39c-0.059-0.063-0.121-0.124-0.191-0.182c-0.757-0.693-1.659-1.196-2.527-1.691
		c-0.881-0.498-1.721-0.969-2.408-1.615c-0.541-0.514-0.947-1.157-1.367-1.841c-0.128-0.188-0.245-0.376-0.364-0.561
		c-0.839-1.278-1.77-2.225-2.845-2.898c-2.208-1.384-4.52-2.64-6.893-3.726c-2.287-1.045-5.011-2.124-7.896-2.217
		c-0.979-0.036-1.939,0.045-2.882,0.14c-0.963,0.27-1.924,0.586-2.915,0.672c-1.117,0.095-2.197-0.188-2.976-0.805
		c-0.512-0.16-0.979-0.37-1.39-0.636l-0.533,0.813c1.355,0.879,3.119,1.254,5.41,1.144c0.68-0.035,1.383-0.105,2.066-0.177
		c1.048-0.105,2.127-0.21,3.18-0.182c2.729,0.086,5.331,1.129,7.524,2.133c2.332,1.063,4.621,2.3,6.786,3.664
		c0.964,0.597,1.788,1.455,2.547,2.607c0.125,0.181,0.241,0.366,0.352,0.548c0.443,0.705,0.896,1.432,1.539,2.025
		c0.769,0.726,1.689,1.253,2.594,1.757c0.508,0.292,0.988,0.571,1.45,0.876c0.827,0.074,1.577,0.389,2.163,0.667
		C365.837,250.625,366.093,250.763,366.356,250.913z"/>
	<path fill="#FFFFFF" d="M366.891,251.23c-0.256-0.354-0.62-0.521-0.925-0.676c-0.011-0.005-0.021-0.013-0.034-0.02
		c0.127,0.127,0.276,0.249,0.425,0.378c0.175,0.103,0.357,0.208,0.531,0.319L366.891,251.23z"/>
	<path fill="#FFFFFF" d="M334.853,236.055c0.991-0.086,1.952-0.402,2.915-0.672c-0.144,0.02-0.295,0.033-0.439,0.048
		c-0.658,0.068-1.35,0.135-2.025,0.172c-1.342,0.059-2.472-0.057-3.426-0.353C332.655,235.866,333.735,236.15,334.853,236.055z"/>
	<path fill="#FFFFFF" d="M364.474,250.671c0.185,0.177,0.377,0.357,0.607,0.514c0.146,0.092,0.309,0.171,0.452,0.244
		c0.248,0.117,0.455,0.217,0.557,0.359l0.701-0.495c-0.146-0.124-0.291-0.255-0.435-0.381c-0.264-0.149-0.52-0.288-0.791-0.422
		c-0.586-0.278-1.336-0.594-2.163-0.667c0.308,0.208,0.612,0.435,0.896,0.684C364.357,250.563,364.41,250.621,364.474,250.671z"/>
	<path fill="#FFFFFF" d="M366.356,250.913c0.144,0.126,0.288,0.257,0.435,0.381l0.097-0.062
		C366.714,251.121,366.531,251.016,366.356,250.913z"/>
	<path fill="#FFFFFF" d="M369.753,253.932c-0.063-0.003-0.125-0.004-0.207-0.011l-0.072,0.967c0.212,0.017,0.424,0.028,0.635,0.037
		c0.097,0.003,0.183,0.005,0.285,0.011c-0.128-0.229-0.256-0.449-0.393-0.67C369.921,254.151,369.845,254.042,369.753,253.932z"/>
</g>
</svg>
