<?xml version="1.0" encoding="utf-8"?>
<!-- Generator: Adobe Illustrator 16.0.0, SVG Export Plug-In . SVG Version: 6.00 Build 0)  -->
<!DOCTYPE svg PUBLIC "-//W3C//DTD SVG 1.1//EN" "http://www.w3.org/Graphics/SVG/1.1/DTD/svg11.dtd">
<svg version="1.1" xmlns="http://www.w3.org/2000/svg" xmlns:xlink="http://www.w3.org/1999/xlink" x="0px" y="0px"
	 width="602.893px" height="308px" viewBox="0 0 602.893 308" enable-background="new 0 0 602.893 308" xml:space="preserve">
<g id="Layer_1" display="none">
	<g display="inline">
		<path fill="#0F7A94" d="M423.292,265.845H178.887c-8.812,0-15.981-7.168-15.981-15.98V51.825c0-8.811,7.169-15.98,15.981-15.98
			h244.405c8.813,0,15.981,7.169,15.981,15.98v198.039C439.273,258.676,432.104,265.845,423.292,265.845z M178.887,49.604
			c-1.226,0-2.223,0.997-2.223,2.222v198.039c0,1.225,0.997,2.222,2.223,2.222h244.405c1.225,0,2.223-0.997,2.223-2.222V51.825
			c0-1.225-0.998-2.222-2.223-2.222H178.887z"/>
		<path fill="#0F7A94" d="M432.394,93.715H169.785c-3.8,0-6.879-3.08-6.879-6.879c0-3.799,3.08-6.879,6.879-6.879h262.608
			c3.8,0,6.88,3.081,6.88,6.879C439.273,90.635,436.193,93.715,432.394,93.715z"/>
		<path fill="#0F7A94" d="M169.781,93.716c-1.55,0-3.108-0.521-4.394-1.589c-2.922-2.429-3.321-6.766-0.894-9.688l36.664-44.111
			c2.428-2.922,6.766-3.322,9.688-0.894c2.922,2.428,3.322,6.766,0.894,9.687l-36.664,44.112
			C173.715,92.87,171.755,93.716,169.781,93.716z"/>
		<path fill="#0F7A94" d="M206.445,93.716c-1.55,0-3.108-0.521-4.394-1.589c-2.922-2.429-3.321-6.766-0.894-9.688l36.664-44.111
			c2.428-2.922,6.765-3.322,9.688-0.894c2.922,2.428,3.321,6.766,0.893,9.687l-36.663,44.112
			C210.379,92.87,208.419,93.716,206.445,93.716z"/>
		<path fill="#0F7A94" d="M243.108,93.716c-1.549,0-3.108-0.521-4.394-1.589c-2.922-2.429-3.321-6.766-0.893-9.688l36.663-44.111
			c2.428-2.922,6.766-3.322,9.688-0.894c2.922,2.428,3.322,6.766,0.894,9.687l-36.664,44.112
			C247.043,92.87,245.083,93.716,243.108,93.716z"/>
		<path fill="#0F7A94" d="M279.772,93.716c-1.549,0-3.108-0.521-4.393-1.589c-2.922-2.429-3.322-6.766-0.894-9.688l36.664-44.111
			c2.428-2.922,6.766-3.322,9.688-0.894s3.323,6.766,0.893,9.687l-36.662,44.112C283.707,92.87,281.747,93.716,279.772,93.716z"/>
		<path fill="#0F7A94" d="M316.436,93.716c-1.549,0-3.109-0.521-4.395-1.589c-2.922-2.429-3.32-6.766-0.893-9.688l36.664-44.111
			c2.428-2.922,6.766-3.322,9.688-0.894s3.321,6.766,0.893,9.687l-36.664,44.112C320.369,92.87,318.408,93.716,316.436,93.716z"/>
		<path fill="#0F7A94" d="M353.099,93.716c-1.549,0-3.108-0.521-4.394-1.589c-2.922-2.429-3.321-6.766-0.893-9.688l36.664-44.111
			c2.428-2.922,6.765-3.322,9.687-0.894c2.923,2.428,3.321,6.766,0.894,9.687l-36.664,44.112
			C357.032,92.87,355.073,93.716,353.099,93.716z"/>
		<path fill="#0F7A94" d="M389.763,93.716c-1.55,0-3.108-0.521-4.394-1.589c-2.922-2.429-3.32-6.766-0.893-9.688l36.664-44.111
			c2.428-2.922,6.765-3.322,9.686-0.894c2.924,2.428,3.322,6.766,0.895,9.687l-36.664,44.112
			C393.696,92.87,391.736,93.716,389.763,93.716z"/>
		<path fill="#0F7A94" d="M301.089,234.041c-32.473,0-58.893-26.419-58.893-58.894c0-32.474,26.419-58.893,58.893-58.893
			c32.473,0,58.894,26.419,58.894,58.893C359.982,207.621,333.562,234.041,301.089,234.041z M301.089,130.013
			c-24.886,0-45.134,20.247-45.134,45.134c0,24.888,20.248,45.135,45.134,45.135c24.888,0,45.135-20.247,45.135-45.135
			C346.224,150.26,325.977,130.013,301.089,130.013z"/>
		<path fill="#0F7A94" d="M288.295,206.173c-1.463,0-2.927-0.345-4.237-0.997c-3.244-1.614-5.262-4.873-5.262-8.501v-44.269
			c0-3.627,2.017-6.885,5.265-8.502c1.307-0.651,2.771-0.996,4.233-0.996c1.913,0,3.809,0.592,5.385,1.673l35.55,22.022
			c0.181,0.112,0.358,0.233,0.529,0.362c2.358,1.784,3.767,4.617,3.767,7.574c0,2.96-1.408,5.792-3.768,7.577
			c-0.17,0.128-0.348,0.25-0.528,0.361l-35.55,22.022C292.103,205.581,290.208,206.173,288.295,206.173z M292.555,160.069v28.943
			l23.361-14.472L292.555,160.069z"/>
	</g>
</g>
<g id="Layer_4">
</g>
<g id="Layer_5">
</g>
<g id="score" display="none">
	<g display="inline">
		<g>
			<path fill="#0F7A94" d="M222.888,250.355V52.729h18.56V37.974h-20.033c-7.32,0-13.281,5.961-13.281,13.281v200.576
				c0,7.326,5.961,13.281,13.281,13.281h85.295c-3.057-4.519-5.514-9.478-7.27-14.756H222.888z"/>
		</g>
		<g>
			<path fill="#0F7A94" d="M371.337,172.891c5.221,1.301,10.172,3.287,14.754,5.865v-127.5c0-7.32-5.961-13.281-13.279-13.281
				h-20.035v14.755h18.561V172.891z"/>
		</g>
		<g>
			<path fill="#0F7A94" d="M268.08,59.417h58.064c9.273,0,16.799-7.525,16.799-16.804v-6.325c0-2.565-2.1-4.666-4.658-4.666h-19.377
				c0-12.036-9.76-21.794-21.795-21.794c-12.037,0-21.795,9.758-21.795,21.794h-19.376c-2.559,0-4.659,2.1-4.659,4.666v6.325
				C251.282,51.893,258.807,59.417,268.08,59.417z M297.112,22.682c4.939,0,8.941,4.008,8.941,8.941
				c0,4.939-4.002,8.948-8.941,8.948c-4.941,0-8.943-4.008-8.943-8.948C288.169,26.69,292.171,22.682,297.112,22.682z"/>
		</g>
		<g>
			<path fill="#0F7A94" d="M267.05,196.431c-0.559-0.559-1.301-0.867-2.091-0.867c-0.791,0-1.533,0.308-2.093,0.867l-15.177,15.177
				l-6.579-6.58c-0.559-0.559-1.302-0.866-2.092-0.866s-1.532,0.308-2.091,0.866l-2.504,2.504c-1.153,1.154-1.153,3.03,0,4.183
				l11.175,11.175c0.559,0.559,1.301,0.866,2.091,0.866s1.533-0.308,2.092-0.866l19.772-19.773c0.559-0.559,0.866-1.301,0.866-2.091
				c0-0.791-0.308-1.533-0.866-2.092L267.05,196.431z"/>
		</g>
		<g>
			<path fill="#0F7A94" d="M269.554,158.727l-2.504-2.504c-0.559-0.559-1.301-0.866-2.091-0.866c-0.791,0-1.533,0.308-2.093,0.866
				L247.69,171.4l-6.579-6.579c-0.559-0.558-1.302-0.866-2.092-0.866s-1.532,0.308-2.091,0.866l-2.504,2.504
				c-1.153,1.154-1.153,3.03,0,4.183l11.175,11.175c0.559,0.559,1.301,0.866,2.091,0.866s1.533-0.307,2.092-0.866l19.772-19.773
				c0.559-0.559,0.866-1.301,0.866-2.092C270.42,160.028,270.113,159.286,269.554,158.727z"/>
		</g>
		<g>
			<path fill="#0F7A94" d="M269.554,118.52l-2.504-2.503c-0.559-0.559-1.301-0.867-2.091-0.867c-0.791,0-1.533,0.308-2.093,0.867
				l-15.177,15.177l-6.579-6.579c-0.559-0.559-1.302-0.867-2.092-0.867s-1.532,0.308-2.091,0.867l-2.504,2.503
				c-1.153,1.154-1.153,3.03,0,4.184l11.175,11.174c0.559,0.559,1.301,0.867,2.091,0.867s1.533-0.308,2.092-0.867l19.772-19.772
				c0.559-0.559,0.866-1.301,0.866-2.092C270.42,119.822,270.113,119.079,269.554,118.52z"/>
		</g>
		<g>
			<path fill="#0F7A94" d="M234.424,86.911c-1.153,1.154-1.153,3.03,0,4.184l11.175,11.174c0.559,0.559,1.301,0.866,2.091,0.866
				s1.533-0.308,2.092-0.866l19.772-19.772c0.559-0.559,0.866-1.302,0.866-2.092c0-0.791-0.308-1.533-0.866-2.092l-2.504-2.503
				c-0.559-0.559-1.301-0.867-2.091-0.867c-0.791,0-1.533,0.308-2.093,0.867L247.69,90.987l-6.579-6.58
				c-0.559-0.559-1.302-0.866-2.092-0.866s-1.532,0.308-2.091,0.866L234.424,86.911z"/>
		</g>
		<g>
			<path fill="#0F7A94" d="M356.702,182.578c-26.965,0-48.824,21.859-48.824,48.823s21.859,48.83,48.824,48.83
				c26.971,0,48.828-21.866,48.828-48.83S383.673,182.578,356.702,182.578z M383.2,218.86l-32.254,38.402
				c-1.016,1.211-2.518,1.914-4.092,1.933h-0.059c-1.557,0-3.041-0.677-4.078-1.85l-17.424-19.95
				c-1.969-2.253-1.732-5.675,0.514-7.64c2.252-1.972,5.674-1.736,7.639,0.511l13.273,15.195l28.189-33.563
				c1.92-2.291,5.336-2.584,7.627-0.664C384.829,213.155,385.12,216.569,383.2,218.86z"/>
		</g>
		<polygon fill-rule="evenodd" clip-rule="evenodd" fill="#0F7A94" points="283.479,77.835 286.44,84.137 293.335,85.005 
			288.259,89.762 289.569,96.593 283.479,93.231 277.389,96.593 278.701,89.762 273.625,85.005 280.519,84.137 		"/>
		<polygon fill-rule="evenodd" clip-rule="evenodd" fill="#0F7A94" points="306.294,77.835 309.257,84.137 316.149,85.005 
			311.073,89.762 312.386,96.593 306.294,93.231 300.204,96.593 301.517,89.762 296.44,85.005 303.333,84.137 		"/>
		<polygon fill-rule="evenodd" clip-rule="evenodd" fill="#0F7A94" points="329.11,77.835 332.071,84.137 338.966,85.005 
			333.89,89.762 335.2,96.593 329.11,93.231 323.019,96.593 324.331,89.762 319.255,85.005 326.151,84.137 		"/>
		<polygon fill-rule="evenodd" clip-rule="evenodd" fill="#0F7A94" points="351.925,77.835 354.888,84.137 361.78,85.005 
			356.704,89.762 358.017,96.593 351.925,93.231 345.833,96.593 347.147,89.762 342.071,85.005 348.966,84.137 		"/>
		<polygon fill-rule="evenodd" clip-rule="evenodd" fill="#0F7A94" points="283.479,118.395 286.44,124.697 293.335,125.565 
			288.259,130.322 289.569,137.153 283.479,133.792 277.389,137.153 278.701,130.322 273.625,125.565 280.519,124.697 		"/>
		<polygon fill-rule="evenodd" clip-rule="evenodd" fill="#0F7A94" points="306.294,118.395 309.257,124.697 316.149,125.565 
			311.073,130.322 312.386,137.153 306.294,133.792 300.204,137.153 301.517,130.322 296.44,125.565 303.333,124.697 		"/>
		<polygon fill-rule="evenodd" clip-rule="evenodd" fill="#0F7A94" points="329.11,118.395 332.071,124.697 338.966,125.565 
			333.89,130.322 335.2,137.153 329.11,133.792 323.019,137.153 324.331,130.322 319.255,125.565 326.151,124.697 		"/>
		<polygon fill-rule="evenodd" clip-rule="evenodd" fill="#0F7A94" points="283.479,158.955 286.44,165.258 293.335,166.125 
			288.259,170.883 289.569,177.714 283.479,174.351 277.389,177.714 278.701,170.883 273.625,166.125 280.519,165.258 		"/>
		<polygon fill-rule="evenodd" clip-rule="evenodd" fill="#0F7A94" points="306.294,158.955 309.257,165.258 316.149,166.125 
			311.073,170.883 312.386,177.714 306.294,174.351 300.204,177.714 301.517,170.883 296.44,166.125 303.333,165.258 		"/>
		<polygon fill-rule="evenodd" clip-rule="evenodd" fill="#0F7A94" points="283.479,199.516 286.44,205.817 293.335,206.685 
			288.259,211.443 289.569,218.274 283.479,214.912 277.389,218.274 278.701,211.443 273.625,206.685 280.519,205.817 		"/>
	</g>
</g>
<g id="scales">
	<g>
		<g>
			<g>
				<path fill="#0F7A94" d="M283.382,197.104l5.528-26.344l-108.191,27.008c-0.016-0.012-0.033-0.023-0.049-0.036v-7.761
					c41.805-1.882,74.63-20.355,74.63-39.807H92.03c0,19.451,32.824,37.925,74.631,39.807v7.761
					c-2.688,2.091-4.423,5.347-4.423,9.016c0,6.313,5.116,11.428,11.428,11.428c5.574,0,10.21-3.992,11.218-9.273L283.382,197.104z"
					/>
				<path fill="#0F7A94" d="M423.658,127.601v5.978c-1.485,1.157-2.677,2.665-3.447,4.407l-106.384,26.555l5.287,25.198
					l102.794-39.804c2.098,2.499,5.239,4.088,8.754,4.088c6.313,0,11.429-5.116,11.429-11.428c0-3.668-1.735-6.925-4.424-9.016
					v-5.978c41.809-1.882,74.632-20.355,74.632-39.807H349.028C349.028,107.246,381.853,125.719,423.658,127.601z"/>
				<path fill="#0F7A94" d="M265.808,141.307c0-2.571-2.084-4.656-4.656-4.656H86.178c-2.571,0-4.655,2.084-4.655,4.656
					c0,2.572,2.084,4.655,4.655,4.655h174.974C263.724,145.962,265.808,143.879,265.808,141.307z"/>
				<path fill="#0F7A94" d="M518.149,74.282H343.177c-2.571,0-4.655,2.083-4.655,4.655c0,2.571,2.084,4.655,4.655,4.655h174.973
					c2.572,0,4.657-2.084,4.657-4.655C522.807,76.365,520.722,74.282,518.149,74.282z"/>
			</g>
			<path fill="#0F7A94" d="M333.894,218.658c0,0-6.411-0.277-10.975-3.648c-3.23-2.386-4.407-7.687-4.407-7.687l-10.589-50.452
				c-0.532-2.896-3.061-4.914-5.9-4.911c-2.842-0.003-5.369,2.015-5.902,4.911l-10.588,50.452c0,0-1.176,5.3-4.407,7.687
				c-4.564,3.371-10.973,3.648-10.973,3.648c-5.451,0.488-9.807,4.39-9.807,9.807v2.902c0,1.719,1.028,2.351,2.407,2.351h39.27
				h39.27c1.379,0,2.408-0.632,2.408-2.351v-2.902C343.7,223.048,339.344,219.146,333.894,218.658z M302.022,183.721
				c-2.501,0-4.525-2.026-4.525-4.524c0-2.5,2.024-4.526,4.525-4.526c2.498,0,4.524,2.026,4.524,4.526
				C306.547,181.695,304.521,183.721,302.022,183.721z"/>
		</g>
	</g>
</g>
</svg>
