<?xml version="1.0" encoding="utf-8"?>
<!-- Generator: Adobe Illustrator 16.0.0, SVG Export Plug-In . SVG Version: 6.00 Build 0)  -->
<!DOCTYPE svg PUBLIC "-//W3C//DTD SVG 1.1//EN" "http://www.w3.org/Graphics/SVG/1.1/DTD/svg11.dtd">
<svg version="1.1" id="Layer_1" xmlns="http://www.w3.org/2000/svg" xmlns:xlink="http://www.w3.org/1999/xlink" x="0px" y="0px"
	 width="300px" height="300.01px" viewBox="151.446 3.995 300 300.01" enable-background="new 151.446 3.995 300 300.01"
	 xml:space="preserve">
<g id="Layer_1_1_" display="none">
	<g display="inline">
		<path fill="#0F7A94" d="M423.292,265.845H178.887c-8.812,0-15.981-7.168-15.981-15.979V51.825c0-8.811,7.169-15.98,15.981-15.98
			h244.405c8.813,0,15.981,7.169,15.981,15.98v198.039C439.273,258.676,432.104,265.845,423.292,265.845z M178.887,49.604
			c-1.226,0-2.223,0.997-2.223,2.222v198.039c0,1.225,0.997,2.222,2.223,2.222h244.405c1.225,0,2.223-0.997,2.223-2.222V51.825
			c0-1.225-0.998-2.222-2.223-2.222L178.887,49.604L178.887,49.604z"/>
		<path fill="#0F7A94" d="M432.394,93.715H169.785c-3.8,0-6.879-3.08-6.879-6.879s3.08-6.879,6.879-6.879h262.607
			c3.801,0,6.881,3.081,6.881,6.879C439.273,90.635,436.193,93.715,432.394,93.715z"/>
		<path fill="#0F7A94" d="M169.781,93.716c-1.55,0-3.108-0.521-4.394-1.589c-2.922-2.429-3.321-6.766-0.894-9.688l36.664-44.111
			c2.428-2.922,6.766-3.322,9.688-0.894c2.922,2.428,3.322,6.766,0.894,9.687l-36.664,44.112
			C173.715,92.87,171.755,93.716,169.781,93.716z"/>
		<path fill="#0F7A94" d="M206.445,93.716c-1.55,0-3.108-0.521-4.394-1.589c-2.922-2.429-3.321-6.766-0.894-9.688l36.664-44.111
			c2.428-2.922,6.765-3.322,9.688-0.894c2.922,2.428,3.321,6.766,0.893,9.687l-36.663,44.112
			C210.379,92.87,208.419,93.716,206.445,93.716z"/>
		<path fill="#0F7A94" d="M243.108,93.716c-1.549,0-3.108-0.521-4.394-1.589c-2.922-2.429-3.321-6.766-0.893-9.688l36.663-44.111
			c2.428-2.922,6.766-3.322,9.688-0.894c2.922,2.428,3.322,6.766,0.894,9.687l-36.664,44.112
			C247.043,92.87,245.083,93.716,243.108,93.716z"/>
		<path fill="#0F7A94" d="M279.772,93.716c-1.549,0-3.108-0.521-4.393-1.589c-2.922-2.429-3.322-6.766-0.894-9.688l36.665-44.111
			c2.428-2.922,6.766-3.322,9.688-0.894c2.922,2.428,3.323,6.766,0.893,9.687l-36.662,44.112
			C283.707,92.87,281.747,93.716,279.772,93.716z"/>
		<path fill="#0F7A94" d="M316.436,93.716c-1.549,0-3.108-0.521-4.395-1.589c-2.922-2.429-3.32-6.766-0.893-9.688l36.663-44.111
			c2.429-2.922,6.767-3.322,9.688-0.894c2.922,2.428,3.321,6.766,0.893,9.687l-36.663,44.112
			C320.369,92.87,318.408,93.716,316.436,93.716z"/>
		<path fill="#0F7A94" d="M353.099,93.716c-1.549,0-3.107-0.521-4.394-1.589c-2.922-2.429-3.321-6.766-0.894-9.688l36.664-44.111
			c2.429-2.922,6.766-3.322,9.688-0.894c2.923,2.428,3.321,6.766,0.894,9.687l-36.664,44.112
			C357.032,92.87,355.073,93.716,353.099,93.716z"/>
		<path fill="#0F7A94" d="M389.763,93.716c-1.55,0-3.107-0.521-4.394-1.589c-2.922-2.429-3.32-6.766-0.894-9.688l36.664-44.111
			c2.429-2.922,6.766-3.322,9.687-0.894c2.924,2.428,3.322,6.766,0.895,9.687l-36.664,44.112
			C393.696,92.87,391.736,93.716,389.763,93.716z"/>
		<path fill="#0F7A94" d="M301.089,234.041c-32.473,0-58.893-26.419-58.893-58.895c0-32.474,26.419-58.893,58.893-58.893
			c32.473,0,58.895,26.419,58.895,58.893C359.982,207.621,333.562,234.041,301.089,234.041z M301.089,130.013
			c-24.886,0-45.134,20.247-45.134,45.133c0,24.889,20.248,45.136,45.134,45.136c24.888,0,45.135-20.247,45.135-45.136
			C346.224,150.26,325.977,130.013,301.089,130.013z"/>
		<path fill="#0F7A94" d="M288.295,206.173c-1.463,0-2.927-0.345-4.237-0.997c-3.244-1.613-5.262-4.873-5.262-8.501v-44.269
			c0-3.627,2.017-6.885,5.265-8.502c1.307-0.651,2.771-0.996,4.233-0.996c1.913,0,3.809,0.592,5.385,1.673l35.55,22.022
			c0.181,0.111,0.357,0.232,0.528,0.361c2.358,1.784,3.768,4.617,3.768,7.574c0,2.96-1.408,5.792-3.769,7.577
			c-0.17,0.128-0.348,0.25-0.527,0.36l-35.55,22.022C292.103,205.581,290.208,206.173,288.295,206.173z M292.555,160.068v28.943
			l23.361-14.472L292.555,160.068z"/>
	</g>
</g>
<g id="Layer_4">
</g>
<g id="score">
	<g>
		<g>
			<path fill="#0F7A94" d="M215.48,270.279V52.182h20.483V35.898h-22.109c-8.078,0-14.657,6.579-14.657,14.657v221.354
				c0,8.084,6.579,14.655,14.657,14.655h94.129c-3.372-4.986-6.084-10.459-8.022-16.284H215.48L215.48,270.279z"/>
		</g>
		<g>
			<path fill="#0F7A94" d="M379.308,184.791c5.761,1.435,11.224,3.627,16.281,6.472V50.556c0-8.078-6.578-14.656-14.654-14.656
				h-22.109v16.284h20.483L379.308,184.791L379.308,184.791z"/>
		</g>
		<g>
			<path fill="#0F7A94" d="M265.354,59.563h64.079c10.233,0,18.539-8.305,18.539-18.545v-6.979c0-2.831-2.318-5.149-5.141-5.149
				h-21.384c0-13.283-10.771-24.052-24.053-24.052c-13.284,0-24.053,10.769-24.053,24.052h-21.383c-2.824,0-5.141,2.317-5.141,5.149
				v6.979C246.816,51.259,255.12,59.563,265.354,59.563z M297.393,19.022c5.451,0,9.867,4.423,9.867,9.867
				c0,5.45-4.416,9.875-9.867,9.875c-5.453,0-9.869-4.423-9.869-9.875C287.524,23.445,291.94,19.022,297.393,19.022z"/>
		</g>
		<g>
			<path fill="#0F7A94" d="M264.217,210.77c-0.617-0.617-1.436-0.956-2.308-0.956c-0.873,0-1.692,0.339-2.31,0.956l-16.749,16.748
				l-7.261-7.263c-0.617-0.614-1.437-0.954-2.308-0.954c-0.872,0-1.691,0.341-2.309,0.954l-2.763,2.766
				c-1.272,1.271-1.272,3.345,0,4.616l12.333,12.333c0.617,0.616,1.436,0.955,2.308,0.955c0.871,0,1.691-0.34,2.309-0.955
				l21.82-21.822c0.617-0.616,0.956-1.436,0.956-2.309s-0.34-1.689-0.956-2.308L264.217,210.77z"/>
		</g>
		<g>
			<path fill="#0F7A94" d="M266.981,169.159l-2.764-2.764c-0.617-0.616-1.436-0.954-2.308-0.954c-0.873,0-1.692,0.339-2.31,0.954
				l-16.748,16.75l-7.261-7.262c-0.617-0.613-1.436-0.955-2.308-0.955s-1.691,0.342-2.308,0.955l-2.764,2.765
				c-1.272,1.273-1.272,3.344,0,4.615l12.333,12.334c0.617,0.616,1.436,0.955,2.308,0.955c0.872,0,1.691-0.339,2.309-0.955
				l21.82-21.821c0.617-0.617,0.955-1.436,0.955-2.309S267.598,169.777,266.981,169.159z"/>
		</g>
		<g>
			<path fill="#0F7A94" d="M266.981,124.788l-2.764-2.763c-0.617-0.617-1.436-0.957-2.308-0.957c-0.873,0-1.692,0.339-2.31,0.957
				l-16.749,16.749l-7.261-7.26c-0.617-0.618-1.437-0.957-2.308-0.957c-0.872,0-1.691,0.339-2.309,0.957l-2.763,2.762
				c-1.272,1.273-1.272,3.344,0,4.617l12.333,12.332c0.617,0.617,1.436,0.956,2.308,0.956c0.871,0,1.691-0.339,2.309-0.956
				l21.82-21.821c0.617-0.617,0.956-1.436,0.956-2.309C267.936,126.225,267.598,125.405,266.981,124.788z"/>
		</g>
		<g>
			<path fill="#0F7A94" d="M228.211,89.905c-1.272,1.273-1.272,3.343,0,4.617l12.333,12.332c0.617,0.617,1.436,0.956,2.308,0.956
				c0.872,0,1.691-0.34,2.309-0.956l21.82-21.82c0.617-0.617,0.955-1.437,0.955-2.309c0-0.873-0.339-1.692-0.955-2.309l-2.764-2.763
				c-0.617-0.617-1.436-0.957-2.308-0.957c-0.873,0-1.692,0.34-2.31,0.957l-16.748,16.749l-7.261-7.261
				c-0.617-0.617-1.436-0.957-2.308-0.957s-1.691,0.34-2.308,0.957L228.211,89.905z"/>
		</g>
		<g>
			<path fill="#0F7A94" d="M363.156,195.48c-29.758,0-53.883,24.125-53.883,53.881c0,29.757,24.125,53.888,53.883,53.888
				c29.765,0,53.886-24.131,53.886-53.888C417.042,219.605,392.921,195.48,363.156,195.48z M392.398,235.521l-35.595,42.38
				c-1.122,1.337-2.779,2.113-4.515,2.134h-0.066c-1.719,0-3.356-0.747-4.501-2.042l-19.229-22.017
				c-2.172-2.484-1.912-6.263,0.567-8.431c2.484-2.176,6.263-1.915,8.43,0.564l14.648,16.769l31.109-37.039
				c2.118-2.528,5.889-2.853,8.417-0.732C394.196,229.227,394.518,232.992,392.398,235.521z"/>
		</g>
		<polygon fill="#0F7A94" points="282.348,79.888 285.616,86.843 293.225,87.801 287.623,93.051 289.068,100.589 282.348,96.879 
			275.627,100.589 277.075,93.051 271.473,87.801 279.082,86.843 		"/>
		<polygon fill="#0F7A94" points="307.525,79.888 310.796,86.843 318.402,87.801 312.801,93.051 314.249,100.589 307.525,96.879 
			300.806,100.589 302.255,93.051 296.651,87.801 304.259,86.843 		"/>
		<polygon fill="#0F7A94" points="332.705,79.888 335.975,86.843 343.581,87.801 337.98,93.051 339.427,100.589 332.705,96.879 
			325.983,100.589 327.433,93.051 321.829,87.801 329.44,86.843 		"/>
		<polygon fill="#0F7A94" points="357.884,79.888 361.154,86.843 368.76,87.801 363.158,93.051 364.605,100.589 357.884,96.879 
			351.162,100.589 352.611,93.051 347.01,87.801 354.618,86.843 		"/>
		<polygon fill="#0F7A94" points="282.348,124.649 285.616,131.604 293.225,132.563 287.623,137.812 289.068,145.35 
			282.348,141.642 275.627,145.35 277.075,137.812 271.473,132.563 279.082,131.604 		"/>
		<polygon fill="#0F7A94" points="307.525,124.649 310.796,131.604 318.402,132.563 312.801,137.812 314.249,145.35 
			307.525,141.642 300.806,145.35 302.255,137.812 296.651,132.563 304.259,131.604 		"/>
		<polygon fill="#0F7A94" points="332.705,124.649 335.975,131.604 343.581,132.563 337.98,137.812 339.427,145.35 332.705,141.642 
			325.983,145.35 327.433,137.812 321.829,132.563 329.44,131.604 		"/>
		<polygon fill="#0F7A94" points="282.348,169.411 285.616,176.367 293.225,177.323 287.623,182.574 289.068,190.112 
			282.348,186.402 275.627,190.112 277.075,182.574 271.473,177.323 279.082,176.367 		"/>
		<polygon fill="#0F7A94" points="307.525,169.411 310.796,176.367 318.402,177.323 312.801,182.574 314.249,190.112 
			307.525,186.402 300.806,190.112 302.255,182.574 296.651,177.323 304.259,176.367 		"/>
		<polygon fill="#0F7A94" points="282.348,214.173 285.616,221.127 293.225,222.085 287.623,227.338 289.068,234.874 
			282.348,231.164 275.627,234.874 277.075,227.338 271.473,222.085 279.082,221.127 		"/>
	</g>
</g>
</svg>
