<?xml version="1.0" encoding="utf-8"?>
<!-- Generator: Adobe Illustrator 16.0.0, SVG Export Plug-In . SVG Version: 6.00 Build 0)  -->
<!DOCTYPE svg PUBLIC "-//W3C//DTD SVG 1.1//EN" "http://www.w3.org/Graphics/SVG/1.1/DTD/svg11.dtd">
<svg version="1.1" id="Layer_1" xmlns="http://www.w3.org/2000/svg" xmlns:xlink="http://www.w3.org/1999/xlink" x="0px" y="0px"
	 width="104.837px" height="103.428px" viewBox="0 0 104.837 103.428" enable-background="new 0 0 104.837 103.428"
	 xml:space="preserve">
<path fill="#117A95" d="M86.779,67.313c-5.217,0-9.921,2.227-13.221,5.776L35.882,54.692c0.151-0.938,0.232-1.898,0.232-2.878
	c0-0.995-0.084-1.969-0.24-2.92l37.714-18.525c3.299,3.531,7.99,5.745,13.191,5.745c9.957,0,18.058-8.101,18.058-18.057
	S96.736,0,86.779,0c-9.956,0-18.057,8.1-18.057,18.057c0,0.995,0.084,1.969,0.24,2.92L31.249,39.502
	c-3.298-3.531-7.99-5.745-13.191-5.745C8.1,33.757,0,41.858,0,51.814c0,9.957,8.1,18.057,18.057,18.057
	c5.217,0,9.921-2.227,13.221-5.775l37.677,18.396c-0.15,0.938-0.232,1.898-0.232,2.879c0,9.955,8.101,18.057,18.057,18.057
	c9.957,0,18.058-8.102,18.058-18.057C104.837,75.414,96.736,67.313,86.779,67.313z"/>
</svg>
