<?xml version="1.0" encoding="utf-8"?>
<!-- Generator: Adobe Illustrator 16.0.0, SVG Export Plug-In . SVG Version: 6.00 Build 0)  -->
<!DOCTYPE svg PUBLIC "-//W3C//DTD SVG 1.1//EN" "http://www.w3.org/Graphics/SVG/1.1/DTD/svg11.dtd">
<svg version="1.1" id="_x2014_ÎÓÈ_x5F_1" xmlns="http://www.w3.org/2000/svg" xmlns:xlink="http://www.w3.org/1999/xlink"
	 x="0px" y="0px" width="500px" height="500px" viewBox="0 0 500 500" enable-background="new 0 0 500 500" xml:space="preserve">
<g>
	<path fill="#0F7A94" d="M500,500H0c0-104.22,63.77-193.54,154.42-231.07c10,7.311,20.81,13.42,32.32,18.29
		C206.79,295.7,228.07,300,250,300c21.92,0,43.21-4.3,63.26-12.78c11.5-4.87,22.311-10.979,32.32-18.29
		C436.23,306.46,500,395.79,500,500z"/>
	<path fill="#0F7A94" d="M387.5,137.5c0,52.35-29.25,97.86-72.3,121.09C295.8,269.06,273.59,275,250,275s-45.8-5.94-65.2-16.41
		c-43.05-23.23-72.3-68.74-72.3-121.09C112.5,61.56,174.06,0,250,0C325.94,0,387.5,61.56,387.5,137.5z"/>
</g>
</svg>
